ISO-10303-21;
HEADER;
/* Generated by software containing ST-Developer
 * from STEP Tools, Inc. (www.steptools.com) 
 */

FILE_DESCRIPTION(
/* description */ (''),
/* implementation_level */ '2;1');

FILE_NAME(
/* name */ 'hackpad.step',
/* time_stamp */ '2026-08-17T19:31:32-04:00',
/* author */ (''),
/* organization */ (''),
/* preprocessor_version */ 'ST-DEVELOPER v20.1',
/* originating_system */ 'Autodesk Translation Framework v15.8.0.0',
/* authorisation */ '');

FILE_SCHEMA (('AUTOMOTIVE_DESIGN { 1 0 10303 214 3 1 1 }'));
ENDSEC;

DATA;
#10=MECHANICAL_DESIGN_GEOMETRIC_PRESENTATION_REPRESENTATION('',(#13,#14,
#15),#2073);
#11=SHAPE_REPRESENTATION_RELATIONSHIP('SRR','None',#2080,#12);
#12=ADVANCED_BREP_SHAPE_REPRESENTATION('',(#16,#17,#18),#2072);
#13=STYLED_ITEM('',(#2089),#16);
#14=STYLED_ITEM('',(#2089),#17);
#15=STYLED_ITEM('',(#2089),#18);
#16=MANIFOLD_SOLID_BREP('Body1',#1257);
#17=MANIFOLD_SOLID_BREP('Body2',#1258);
#18=MANIFOLD_SOLID_BREP('Body3',#1259);
#19=CYLINDRICAL_SURFACE('',#1287,1.45);
#20=CYLINDRICAL_SURFACE('',#1289,1.45);
#21=CYLINDRICAL_SURFACE('',#1291,1.45);
#22=CYLINDRICAL_SURFACE('',#1293,1.45);
#23=CYLINDRICAL_SURFACE('',#1302,0.499999999999998);
#24=CYLINDRICAL_SURFACE('',#1306,0.499999999999998);
#25=CYLINDRICAL_SURFACE('',#1310,0.500000000000003);
#26=CYLINDRICAL_SURFACE('',#1314,0.5);
#27=CYLINDRICAL_SURFACE('',#1318,0.5);
#28=CYLINDRICAL_SURFACE('',#1322,0.499999999999998);
#29=CYLINDRICAL_SURFACE('',#1326,0.499999999999998);
#30=CYLINDRICAL_SURFACE('',#1330,0.5);
#31=CYLINDRICAL_SURFACE('',#1334,0.500000000000007);
#32=CYLINDRICAL_SURFACE('',#1338,0.499999999999998);
#33=CYLINDRICAL_SURFACE('',#1342,0.499999999999989);
#34=CYLINDRICAL_SURFACE('',#1346,0.5);
#35=CYLINDRICAL_SURFACE('',#1359,1.45);
#36=CYLINDRICAL_SURFACE('',#1362,1.45);
#37=CYLINDRICAL_SURFACE('',#1365,1.45);
#38=CYLINDRICAL_SURFACE('',#1368,1.45);
#39=FACE_BOUND('',#173,.T.);
#40=FACE_BOUND('',#174,.T.);
#41=FACE_BOUND('',#175,.T.);
#42=FACE_BOUND('',#176,.T.);
#43=FACE_BOUND('',#191,.T.);
#44=FACE_BOUND('',#192,.T.);
#45=FACE_BOUND('',#193,.T.);
#46=FACE_BOUND('',#194,.T.);
#47=FACE_BOUND('',#224,.T.);
#48=FACE_BOUND('',#225,.T.);
#49=FACE_BOUND('',#226,.T.);
#50=FACE_BOUND('',#228,.T.);
#51=FACE_BOUND('',#229,.T.);
#52=FACE_BOUND('',#230,.T.);
#53=FACE_BOUND('',#244,.T.);
#54=FACE_BOUND('',#245,.T.);
#55=FACE_BOUND('',#246,.T.);
#56=FACE_BOUND('',#247,.T.);
#57=FACE_BOUND('',#248,.T.);
#58=FACE_BOUND('',#250,.T.);
#59=FACE_BOUND('',#251,.T.);
#60=FACE_BOUND('',#252,.T.);
#61=FACE_BOUND('',#253,.T.);
#62=FACE_BOUND('',#254,.T.);
#63=CIRCLE('',#1279,1.45);
#64=CIRCLE('',#1280,1.45);
#65=CIRCLE('',#1281,1.45);
#66=CIRCLE('',#1282,1.45);
#67=CIRCLE('',#1288,1.45);
#68=CIRCLE('',#1290,1.45);
#69=CIRCLE('',#1292,1.45);
#70=CIRCLE('',#1294,1.45);
#71=CIRCLE('',#1303,0.499999999999998);
#72=CIRCLE('',#1304,0.499999999999998);
#73=CIRCLE('',#1307,0.499999999999998);
#74=CIRCLE('',#1308,0.499999999999998);
#75=CIRCLE('',#1311,0.500000000000003);
#76=CIRCLE('',#1312,0.500000000000003);
#77=CIRCLE('',#1315,0.5);
#78=CIRCLE('',#1316,0.5);
#79=CIRCLE('',#1319,0.5);
#80=CIRCLE('',#1320,0.5);
#81=CIRCLE('',#1323,0.499999999999998);
#82=CIRCLE('',#1324,0.499999999999998);
#83=CIRCLE('',#1327,0.499999999999998);
#84=CIRCLE('',#1328,0.499999999999998);
#85=CIRCLE('',#1331,0.5);
#86=CIRCLE('',#1332,0.5);
#87=CIRCLE('',#1335,0.500000000000007);
#88=CIRCLE('',#1336,0.500000000000007);
#89=CIRCLE('',#1339,0.499999999999998);
#90=CIRCLE('',#1340,0.499999999999998);
#91=CIRCLE('',#1343,0.499999999999989);
#92=CIRCLE('',#1344,0.499999999999989);
#93=CIRCLE('',#1347,0.5);
#94=CIRCLE('',#1348,0.5);
#95=CIRCLE('',#1360,1.45);
#96=CIRCLE('',#1361,1.45);
#97=CIRCLE('',#1363,1.45);
#98=CIRCLE('',#1364,1.45);
#99=CIRCLE('',#1366,1.45);
#100=CIRCLE('',#1367,1.45);
#101=CIRCLE('',#1369,1.45);
#102=CIRCLE('',#1370,1.45);
#103=FACE_OUTER_BOUND('',#167,.T.);
#104=FACE_OUTER_BOUND('',#168,.T.);
#105=FACE_OUTER_BOUND('',#169,.T.);
#106=FACE_OUTER_BOUND('',#170,.T.);
#107=FACE_OUTER_BOUND('',#171,.T.);
#108=FACE_OUTER_BOUND('',#172,.T.);
#109=FACE_OUTER_BOUND('',#177,.T.);
#110=FACE_OUTER_BOUND('',#178,.T.);
#111=FACE_OUTER_BOUND('',#179,.T.);
#112=FACE_OUTER_BOUND('',#180,.T.);
#113=FACE_OUTER_BOUND('',#181,.T.);
#114=FACE_OUTER_BOUND('',#182,.T.);
#115=FACE_OUTER_BOUND('',#183,.T.);
#116=FACE_OUTER_BOUND('',#184,.T.);
#117=FACE_OUTER_BOUND('',#185,.T.);
#118=FACE_OUTER_BOUND('',#186,.T.);
#119=FACE_OUTER_BOUND('',#187,.T.);
#120=FACE_OUTER_BOUND('',#188,.T.);
#121=FACE_OUTER_BOUND('',#189,.T.);
#122=FACE_OUTER_BOUND('',#190,.T.);
#123=FACE_OUTER_BOUND('',#195,.T.);
#124=FACE_OUTER_BOUND('',#196,.T.);
#125=FACE_OUTER_BOUND('',#197,.T.);
#126=FACE_OUTER_BOUND('',#198,.T.);
#127=FACE_OUTER_BOUND('',#199,.T.);
#128=FACE_OUTER_BOUND('',#200,.T.);
#129=FACE_OUTER_BOUND('',#201,.T.);
#130=FACE_OUTER_BOUND('',#202,.T.);
#131=FACE_OUTER_BOUND('',#203,.T.);
#132=FACE_OUTER_BOUND('',#204,.T.);
#133=FACE_OUTER_BOUND('',#205,.T.);
#134=FACE_OUTER_BOUND('',#206,.T.);
#135=FACE_OUTER_BOUND('',#207,.T.);
#136=FACE_OUTER_BOUND('',#208,.T.);
#137=FACE_OUTER_BOUND('',#209,.T.);
#138=FACE_OUTER_BOUND('',#210,.T.);
#139=FACE_OUTER_BOUND('',#211,.T.);
#140=FACE_OUTER_BOUND('',#212,.T.);
#141=FACE_OUTER_BOUND('',#213,.T.);
#142=FACE_OUTER_BOUND('',#214,.T.);
#143=FACE_OUTER_BOUND('',#215,.T.);
#144=FACE_OUTER_BOUND('',#216,.T.);
#145=FACE_OUTER_BOUND('',#217,.T.);
#146=FACE_OUTER_BOUND('',#218,.T.);
#147=FACE_OUTER_BOUND('',#219,.T.);
#148=FACE_OUTER_BOUND('',#220,.T.);
#149=FACE_OUTER_BOUND('',#221,.T.);
#150=FACE_OUTER_BOUND('',#222,.T.);
#151=FACE_OUTER_BOUND('',#223,.T.);
#152=FACE_OUTER_BOUND('',#227,.T.);
#153=FACE_OUTER_BOUND('',#231,.T.);
#154=FACE_OUTER_BOUND('',#232,.T.);
#155=FACE_OUTER_BOUND('',#233,.T.);
#156=FACE_OUTER_BOUND('',#234,.T.);
#157=FACE_OUTER_BOUND('',#235,.T.);
#158=FACE_OUTER_BOUND('',#236,.T.);
#159=FACE_OUTER_BOUND('',#237,.T.);
#160=FACE_OUTER_BOUND('',#238,.T.);
#161=FACE_OUTER_BOUND('',#239,.T.);
#162=FACE_OUTER_BOUND('',#240,.T.);
#163=FACE_OUTER_BOUND('',#241,.T.);
#164=FACE_OUTER_BOUND('',#242,.T.);
#165=FACE_OUTER_BOUND('',#243,.T.);
#166=FACE_OUTER_BOUND('',#249,.T.);
#167=EDGE_LOOP('',(#805,#806,#807,#808));
#168=EDGE_LOOP('',(#809,#810,#811,#812));
#169=EDGE_LOOP('',(#813,#814,#815,#816,#817,#818));
#170=EDGE_LOOP('',(#819,#820,#821,#822));
#171=EDGE_LOOP('',(#823,#824,#825,#826));
#172=EDGE_LOOP('',(#827,#828,#829,#830,#831,#832,#833,#834,#835,#836,#837,
#838));
#173=EDGE_LOOP('',(#839));
#174=EDGE_LOOP('',(#840));
#175=EDGE_LOOP('',(#841));
#176=EDGE_LOOP('',(#842));
#177=EDGE_LOOP('',(#843,#844,#845,#846,#847));
#178=EDGE_LOOP('',(#848,#849,#850,#851));
#179=EDGE_LOOP('',(#852,#853,#854,#855));
#180=EDGE_LOOP('',(#856,#857,#858,#859,#860));
#181=EDGE_LOOP('',(#861,#862,#863,#864));
#182=EDGE_LOOP('',(#865,#866,#867,#868));
#183=EDGE_LOOP('',(#869,#870,#871,#872));
#184=EDGE_LOOP('',(#873,#874,#875,#876));
#185=EDGE_LOOP('',(#877,#878,#879,#880));
#186=EDGE_LOOP('',(#881,#882,#883,#884));
#187=EDGE_LOOP('',(#885,#886,#887,#888));
#188=EDGE_LOOP('',(#889,#890,#891,#892,#893,#894,#895,#896));
#189=EDGE_LOOP('',(#897,#898,#899,#900));
#190=EDGE_LOOP('',(#901,#902,#903,#904));
#191=EDGE_LOOP('',(#905));
#192=EDGE_LOOP('',(#906));
#193=EDGE_LOOP('',(#907));
#194=EDGE_LOOP('',(#908));
#195=EDGE_LOOP('',(#909,#910,#911,#912));
#196=EDGE_LOOP('',(#913,#914,#915,#916));
#197=EDGE_LOOP('',(#917,#918,#919,#920));
#198=EDGE_LOOP('',(#921,#922,#923,#924));
#199=EDGE_LOOP('',(#925,#926,#927,#928));
#200=EDGE_LOOP('',(#929,#930,#931,#932));
#201=EDGE_LOOP('',(#933,#934,#935,#936));
#202=EDGE_LOOP('',(#937,#938,#939,#940));
#203=EDGE_LOOP('',(#941,#942,#943,#944));
#204=EDGE_LOOP('',(#945,#946,#947,#948));
#205=EDGE_LOOP('',(#949,#950,#951,#952));
#206=EDGE_LOOP('',(#953,#954,#955,#956));
#207=EDGE_LOOP('',(#957,#958,#959,#960));
#208=EDGE_LOOP('',(#961,#962,#963,#964));
#209=EDGE_LOOP('',(#965,#966,#967,#968));
#210=EDGE_LOOP('',(#969,#970,#971,#972));
#211=EDGE_LOOP('',(#973,#974,#975,#976));
#212=EDGE_LOOP('',(#977,#978,#979,#980));
#213=EDGE_LOOP('',(#981,#982,#983,#984));
#214=EDGE_LOOP('',(#985,#986,#987,#988));
#215=EDGE_LOOP('',(#989,#990,#991,#992));
#216=EDGE_LOOP('',(#993,#994,#995,#996));
#217=EDGE_LOOP('',(#997,#998,#999,#1000));
#218=EDGE_LOOP('',(#1001,#1002,#1003,#1004));
#219=EDGE_LOOP('',(#1005,#1006,#1007,#1008));
#220=EDGE_LOOP('',(#1009,#1010,#1011,#1012));
#221=EDGE_LOOP('',(#1013,#1014,#1015,#1016));
#222=EDGE_LOOP('',(#1017,#1018,#1019,#1020));
#223=EDGE_LOOP('',(#1021,#1022,#1023,#1024));
#224=EDGE_LOOP('',(#1025,#1026,#1027,#1028,#1029,#1030,#1031,#1032));
#225=EDGE_LOOP('',(#1033,#1034,#1035,#1036,#1037,#1038,#1039,#1040));
#226=EDGE_LOOP('',(#1041,#1042,#1043,#1044,#1045,#1046,#1047,#1048));
#227=EDGE_LOOP('',(#1049,#1050,#1051,#1052));
#228=EDGE_LOOP('',(#1053,#1054,#1055,#1056,#1057,#1058,#1059,#1060));
#229=EDGE_LOOP('',(#1061,#1062,#1063,#1064,#1065,#1066,#1067,#1068));
#230=EDGE_LOOP('',(#1069,#1070,#1071,#1072,#1073,#1074,#1075,#1076));
#231=EDGE_LOOP('',(#1077,#1078,#1079,#1080));
#232=EDGE_LOOP('',(#1081,#1082,#1083,#1084));
#233=EDGE_LOOP('',(#1085,#1086,#1087,#1088));
#234=EDGE_LOOP('',(#1089,#1090,#1091,#1092));
#235=EDGE_LOOP('',(#1093,#1094,#1095,#1096));
#236=EDGE_LOOP('',(#1097,#1098,#1099,#1100));
#237=EDGE_LOOP('',(#1101,#1102,#1103,#1104));
#238=EDGE_LOOP('',(#1105,#1106,#1107,#1108));
#239=EDGE_LOOP('',(#1109,#1110,#1111,#1112));
#240=EDGE_LOOP('',(#1113,#1114,#1115,#1116));
#241=EDGE_LOOP('',(#1117,#1118,#1119,#1120));
#242=EDGE_LOOP('',(#1121,#1122,#1123,#1124));
#243=EDGE_LOOP('',(#1125,#1126,#1127,#1128));
#244=EDGE_LOOP('',(#1129));
#245=EDGE_LOOP('',(#1130));
#246=EDGE_LOOP('',(#1131));
#247=EDGE_LOOP('',(#1132));
#248=EDGE_LOOP('',(#1133,#1134,#1135,#1136));
#249=EDGE_LOOP('',(#1137,#1138,#1139,#1140));
#250=EDGE_LOOP('',(#1141));
#251=EDGE_LOOP('',(#1142));
#252=EDGE_LOOP('',(#1143));
#253=EDGE_LOOP('',(#1144));
#254=EDGE_LOOP('',(#1145,#1146,#1147,#1148));
#255=LINE('',#1723,#387);
#256=LINE('',#1725,#388);
#257=LINE('',#1727,#389);
#258=LINE('',#1728,#390);
#259=LINE('',#1732,#391);
#260=LINE('',#1734,#392);
#261=LINE('',#1736,#393);
#262=LINE('',#1737,#394);
#263=LINE('',#1741,#395);
#264=LINE('',#1742,#396);
#265=LINE('',#1743,#397);
#266=LINE('',#1744,#398);
#267=LINE('',#1747,#399);
#268=LINE('',#1748,#400);
#269=LINE('',#1751,#401);
#270=LINE('',#1752,#402);
#271=LINE('',#1755,#403);
#272=LINE('',#1757,#404);
#273=LINE('',#1758,#405);
#274=LINE('',#1760,#406);
#275=LINE('',#1762,#407);
#276=LINE('',#1764,#408);
#277=LINE('',#1766,#409);
#278=LINE('',#1767,#410);
#279=LINE('',#1779,#411);
#280=LINE('',#1780,#412);
#281=LINE('',#1781,#413);
#282=LINE('',#1784,#414);
#283=LINE('',#1785,#415);
#284=LINE('',#1788,#416);
#285=LINE('',#1789,#417);
#286=LINE('',#1791,#418);
#287=LINE('',#1794,#419);
#288=LINE('',#1798,#420);
#289=LINE('',#1802,#421);
#290=LINE('',#1806,#422);
#291=LINE('',#1811,#423);
#292=LINE('',#1812,#424);
#293=LINE('',#1813,#425);
#294=LINE('',#1816,#426);
#295=LINE('',#1817,#427);
#296=LINE('',#1820,#428);
#297=LINE('',#1821,#429);
#298=LINE('',#1823,#430);
#299=LINE('',#1829,#431);
#300=LINE('',#1831,#432);
#301=LINE('',#1833,#433);
#302=LINE('',#1834,#434);
#303=LINE('',#1840,#435);
#304=LINE('',#1843,#436);
#305=LINE('',#1845,#437);
#306=LINE('',#1846,#438);
#307=LINE('',#1852,#439);
#308=LINE('',#1855,#440);
#309=LINE('',#1857,#441);
#310=LINE('',#1858,#442);
#311=LINE('',#1864,#443);
#312=LINE('',#1867,#444);
#313=LINE('',#1869,#445);
#314=LINE('',#1870,#446);
#315=LINE('',#1877,#447);
#316=LINE('',#1879,#448);
#317=LINE('',#1881,#449);
#318=LINE('',#1882,#450);
#319=LINE('',#1888,#451);
#320=LINE('',#1891,#452);
#321=LINE('',#1893,#453);
#322=LINE('',#1894,#454);
#323=LINE('',#1900,#455);
#324=LINE('',#1903,#456);
#325=LINE('',#1905,#457);
#326=LINE('',#1906,#458);
#327=LINE('',#1912,#459);
#328=LINE('',#1915,#460);
#329=LINE('',#1917,#461);
#330=LINE('',#1918,#462);
#331=LINE('',#1925,#463);
#332=LINE('',#1927,#464);
#333=LINE('',#1929,#465);
#334=LINE('',#1930,#466);
#335=LINE('',#1936,#467);
#336=LINE('',#1939,#468);
#337=LINE('',#1941,#469);
#338=LINE('',#1942,#470);
#339=LINE('',#1948,#471);
#340=LINE('',#1951,#472);
#341=LINE('',#1953,#473);
#342=LINE('',#1954,#474);
#343=LINE('',#1960,#475);
#344=LINE('',#1963,#476);
#345=LINE('',#1965,#477);
#346=LINE('',#1966,#478);
#347=LINE('',#1973,#479);
#348=LINE('',#1975,#480);
#349=LINE('',#1977,#481);
#350=LINE('',#1978,#482);
#351=LINE('',#1981,#483);
#352=LINE('',#1983,#484);
#353=LINE('',#1984,#485);
#354=LINE('',#1987,#486);
#355=LINE('',#1989,#487);
#356=LINE('',#1990,#488);
#357=LINE('',#1992,#489);
#358=LINE('',#1993,#490);
#359=LINE('',#1999,#491);
#360=LINE('',#2001,#492);
#361=LINE('',#2003,#493);
#362=LINE('',#2004,#494);
#363=LINE('',#2007,#495);
#364=LINE('',#2009,#496);
#365=LINE('',#2010,#497);
#366=LINE('',#2013,#498);
#367=LINE('',#2015,#499);
#368=LINE('',#2016,#500);
#369=LINE('',#2018,#501);
#370=LINE('',#2019,#502);
#371=LINE('',#2024,#503);
#372=LINE('',#2030,#504);
#373=LINE('',#2036,#505);
#374=LINE('',#2042,#506);
#375=LINE('',#2047,#507);
#376=LINE('',#2049,#508);
#377=LINE('',#2051,#509);
#378=LINE('',#2052,#510);
#379=LINE('',#2055,#511);
#380=LINE('',#2057,#512);
#381=LINE('',#2058,#513);
#382=LINE('',#2061,#514);
#383=LINE('',#2063,#515);
#384=LINE('',#2064,#516);
#385=LINE('',#2066,#517);
#386=LINE('',#2067,#518);
#387=VECTOR('',#1381,10.);
#388=VECTOR('',#1382,10.);
#389=VECTOR('',#1383,10.);
#390=VECTOR('',#1384,10.);
#391=VECTOR('',#1387,10.);
#392=VECTOR('',#1388,10.);
#393=VECTOR('',#1389,10.);
#394=VECTOR('',#1390,10.);
#395=VECTOR('',#1393,10.);
#396=VECTOR('',#1394,10.);
#397=VECTOR('',#1395,10.);
#398=VECTOR('',#1396,10.);
#399=VECTOR('',#1399,10.);
#400=VECTOR('',#1400,10.);
#401=VECTOR('',#1403,10.);
#402=VECTOR('',#1404,10.);
#403=VECTOR('',#1407,10.);
#404=VECTOR('',#1408,10.);
#405=VECTOR('',#1409,10.);
#406=VECTOR('',#1410,10.);
#407=VECTOR('',#1411,10.);
#408=VECTOR('',#1412,10.);
#409=VECTOR('',#1413,10.);
#410=VECTOR('',#1414,10.);
#411=VECTOR('',#1425,10.);
#412=VECTOR('',#1426,10.);
#413=VECTOR('',#1427,10.);
#414=VECTOR('',#1430,10.);
#415=VECTOR('',#1431,10.);
#416=VECTOR('',#1434,10.);
#417=VECTOR('',#1435,10.);
#418=VECTOR('',#1438,10.);
#419=VECTOR('',#1441,1.45);
#420=VECTOR('',#1446,1.45);
#421=VECTOR('',#1451,1.45);
#422=VECTOR('',#1456,1.45);
#423=VECTOR('',#1461,10.);
#424=VECTOR('',#1462,10.);
#425=VECTOR('',#1463,10.);
#426=VECTOR('',#1466,10.);
#427=VECTOR('',#1467,10.);
#428=VECTOR('',#1470,10.);
#429=VECTOR('',#1471,10.);
#430=VECTOR('',#1474,10.);
#431=VECTOR('',#1481,10.);
#432=VECTOR('',#1482,10.);
#433=VECTOR('',#1483,10.);
#434=VECTOR('',#1484,10.);
#435=VECTOR('',#1491,10.);
#436=VECTOR('',#1494,10.);
#437=VECTOR('',#1495,10.);
#438=VECTOR('',#1496,10.);
#439=VECTOR('',#1503,10.);
#440=VECTOR('',#1506,10.);
#441=VECTOR('',#1507,10.);
#442=VECTOR('',#1508,10.);
#443=VECTOR('',#1515,10.);
#444=VECTOR('',#1518,10.);
#445=VECTOR('',#1519,10.);
#446=VECTOR('',#1520,10.);
#447=VECTOR('',#1529,10.);
#448=VECTOR('',#1530,10.);
#449=VECTOR('',#1531,10.);
#450=VECTOR('',#1532,10.);
#451=VECTOR('',#1539,10.);
#452=VECTOR('',#1542,10.);
#453=VECTOR('',#1543,10.);
#454=VECTOR('',#1544,10.);
#455=VECTOR('',#1551,10.);
#456=VECTOR('',#1554,10.);
#457=VECTOR('',#1555,10.);
#458=VECTOR('',#1556,10.);
#459=VECTOR('',#1563,10.);
#460=VECTOR('',#1566,10.);
#461=VECTOR('',#1567,10.);
#462=VECTOR('',#1568,10.);
#463=VECTOR('',#1577,10.);
#464=VECTOR('',#1578,10.);
#465=VECTOR('',#1579,10.);
#466=VECTOR('',#1580,10.);
#467=VECTOR('',#1587,10.);
#468=VECTOR('',#1590,10.);
#469=VECTOR('',#1591,10.);
#470=VECTOR('',#1592,10.);
#471=VECTOR('',#1599,10.);
#472=VECTOR('',#1602,10.);
#473=VECTOR('',#1603,10.);
#474=VECTOR('',#1604,10.);
#475=VECTOR('',#1611,10.);
#476=VECTOR('',#1614,10.);
#477=VECTOR('',#1615,10.);
#478=VECTOR('',#1616,10.);
#479=VECTOR('',#1625,10.);
#480=VECTOR('',#1626,10.);
#481=VECTOR('',#1627,10.);
#482=VECTOR('',#1628,10.);
#483=VECTOR('',#1631,10.);
#484=VECTOR('',#1632,10.);
#485=VECTOR('',#1633,10.);
#486=VECTOR('',#1636,10.);
#487=VECTOR('',#1637,10.);
#488=VECTOR('',#1638,10.);
#489=VECTOR('',#1641,10.);
#490=VECTOR('',#1642,10.);
#491=VECTOR('',#1649,10.);
#492=VECTOR('',#1650,10.);
#493=VECTOR('',#1651,10.);
#494=VECTOR('',#1652,10.);
#495=VECTOR('',#1655,10.);
#496=VECTOR('',#1656,10.);
#497=VECTOR('',#1657,10.);
#498=VECTOR('',#1660,10.);
#499=VECTOR('',#1661,10.);
#500=VECTOR('',#1662,10.);
#501=VECTOR('',#1665,10.);
#502=VECTOR('',#1666,10.);
#503=VECTOR('',#1671,1.45);
#504=VECTOR('',#1678,1.45);
#505=VECTOR('',#1685,1.45);
#506=VECTOR('',#1692,1.45);
#507=VECTOR('',#1697,10.);
#508=VECTOR('',#1698,10.);
#509=VECTOR('',#1699,10.);
#510=VECTOR('',#1700,10.);
#511=VECTOR('',#1703,10.);
#512=VECTOR('',#1704,10.);
#513=VECTOR('',#1705,10.);
#514=VECTOR('',#1708,10.);
#515=VECTOR('',#1709,10.);
#516=VECTOR('',#1710,10.);
#517=VECTOR('',#1713,10.);
#518=VECTOR('',#1714,10.);
#519=VERTEX_POINT('',#1721);
#520=VERTEX_POINT('',#1722);
#521=VERTEX_POINT('',#1724);
#522=VERTEX_POINT('',#1726);
#523=VERTEX_POINT('',#1730);
#524=VERTEX_POINT('',#1731);
#525=VERTEX_POINT('',#1733);
#526=VERTEX_POINT('',#1735);
#527=VERTEX_POINT('',#1739);
#528=VERTEX_POINT('',#1740);
#529=VERTEX_POINT('',#1746);
#530=VERTEX_POINT('',#1750);
#531=VERTEX_POINT('',#1754);
#532=VERTEX_POINT('',#1756);
#533=VERTEX_POINT('',#1759);
#534=VERTEX_POINT('',#1761);
#535=VERTEX_POINT('',#1763);
#536=VERTEX_POINT('',#1765);
#537=VERTEX_POINT('',#1768);
#538=VERTEX_POINT('',#1770);
#539=VERTEX_POINT('',#1772);
#540=VERTEX_POINT('',#1774);
#541=VERTEX_POINT('',#1777);
#542=VERTEX_POINT('',#1778);
#543=VERTEX_POINT('',#1783);
#544=VERTEX_POINT('',#1787);
#545=VERTEX_POINT('',#1793);
#546=VERTEX_POINT('',#1797);
#547=VERTEX_POINT('',#1801);
#548=VERTEX_POINT('',#1805);
#549=VERTEX_POINT('',#1809);
#550=VERTEX_POINT('',#1810);
#551=VERTEX_POINT('',#1815);
#552=VERTEX_POINT('',#1819);
#553=VERTEX_POINT('',#1827);
#554=VERTEX_POINT('',#1828);
#555=VERTEX_POINT('',#1830);
#556=VERTEX_POINT('',#1832);
#557=VERTEX_POINT('',#1836);
#558=VERTEX_POINT('',#1838);
#559=VERTEX_POINT('',#1842);
#560=VERTEX_POINT('',#1844);
#561=VERTEX_POINT('',#1848);
#562=VERTEX_POINT('',#1850);
#563=VERTEX_POINT('',#1854);
#564=VERTEX_POINT('',#1856);
#565=VERTEX_POINT('',#1860);
#566=VERTEX_POINT('',#1862);
#567=VERTEX_POINT('',#1866);
#568=VERTEX_POINT('',#1868);
#569=VERTEX_POINT('',#1875);
#570=VERTEX_POINT('',#1876);
#571=VERTEX_POINT('',#1878);
#572=VERTEX_POINT('',#1880);
#573=VERTEX_POINT('',#1884);
#574=VERTEX_POINT('',#1886);
#575=VERTEX_POINT('',#1890);
#576=VERTEX_POINT('',#1892);
#577=VERTEX_POINT('',#1896);
#578=VERTEX_POINT('',#1898);
#579=VERTEX_POINT('',#1902);
#580=VERTEX_POINT('',#1904);
#581=VERTEX_POINT('',#1908);
#582=VERTEX_POINT('',#1910);
#583=VERTEX_POINT('',#1914);
#584=VERTEX_POINT('',#1916);
#585=VERTEX_POINT('',#1923);
#586=VERTEX_POINT('',#1924);
#587=VERTEX_POINT('',#1926);
#588=VERTEX_POINT('',#1928);
#589=VERTEX_POINT('',#1932);
#590=VERTEX_POINT('',#1934);
#591=VERTEX_POINT('',#1938);
#592=VERTEX_POINT('',#1940);
#593=VERTEX_POINT('',#1944);
#594=VERTEX_POINT('',#1946);
#595=VERTEX_POINT('',#1950);
#596=VERTEX_POINT('',#1952);
#597=VERTEX_POINT('',#1956);
#598=VERTEX_POINT('',#1958);
#599=VERTEX_POINT('',#1962);
#600=VERTEX_POINT('',#1964);
#601=VERTEX_POINT('',#1971);
#602=VERTEX_POINT('',#1972);
#603=VERTEX_POINT('',#1974);
#604=VERTEX_POINT('',#1976);
#605=VERTEX_POINT('',#1980);
#606=VERTEX_POINT('',#1982);
#607=VERTEX_POINT('',#1986);
#608=VERTEX_POINT('',#1988);
#609=VERTEX_POINT('',#1997);
#610=VERTEX_POINT('',#1998);
#611=VERTEX_POINT('',#2000);
#612=VERTEX_POINT('',#2002);
#613=VERTEX_POINT('',#2006);
#614=VERTEX_POINT('',#2008);
#615=VERTEX_POINT('',#2012);
#616=VERTEX_POINT('',#2014);
#617=VERTEX_POINT('',#2021);
#618=VERTEX_POINT('',#2023);
#619=VERTEX_POINT('',#2027);
#620=VERTEX_POINT('',#2029);
#621=VERTEX_POINT('',#2033);
#622=VERTEX_POINT('',#2035);
#623=VERTEX_POINT('',#2039);
#624=VERTEX_POINT('',#2041);
#625=VERTEX_POINT('',#2045);
#626=VERTEX_POINT('',#2046);
#627=VERTEX_POINT('',#2048);
#628=VERTEX_POINT('',#2050);
#629=VERTEX_POINT('',#2054);
#630=VERTEX_POINT('',#2056);
#631=VERTEX_POINT('',#2060);
#632=VERTEX_POINT('',#2062);
#633=EDGE_CURVE('',#519,#520,#255,.T.);
#634=EDGE_CURVE('',#521,#520,#256,.T.);
#635=EDGE_CURVE('',#522,#521,#257,.T.);
#636=EDGE_CURVE('',#519,#522,#258,.T.);
#637=EDGE_CURVE('',#523,#524,#259,.T.);
#638=EDGE_CURVE('',#525,#523,#260,.T.);
#639=EDGE_CURVE('',#526,#525,#261,.T.);
#640=EDGE_CURVE('',#524,#526,#262,.T.);
#641=EDGE_CURVE('',#527,#528,#263,.T.);
#642=EDGE_CURVE('',#527,#525,#264,.T.);
#643=EDGE_CURVE('',#519,#523,#265,.T.);
#644=EDGE_CURVE('',#528,#522,#266,.T.);
#645=EDGE_CURVE('',#529,#527,#267,.T.);
#646=EDGE_CURVE('',#526,#529,#268,.T.);
#647=EDGE_CURVE('',#528,#530,#269,.T.);
#648=EDGE_CURVE('',#530,#521,#270,.T.);
#649=EDGE_CURVE('',#520,#531,#271,.T.);
#650=EDGE_CURVE('',#531,#532,#272,.T.);
#651=EDGE_CURVE('',#532,#524,#273,.T.);
#652=EDGE_CURVE('',#529,#533,#274,.T.);
#653=EDGE_CURVE('',#533,#534,#275,.T.);
#654=EDGE_CURVE('',#534,#535,#276,.T.);
#655=EDGE_CURVE('',#535,#536,#277,.T.);
#656=EDGE_CURVE('',#536,#530,#278,.T.);
#657=EDGE_CURVE('',#537,#537,#63,.T.);
#658=EDGE_CURVE('',#538,#538,#64,.T.);
#659=EDGE_CURVE('',#539,#539,#65,.T.);
#660=EDGE_CURVE('',#540,#540,#66,.T.);
#661=EDGE_CURVE('',#541,#542,#279,.T.);
#662=EDGE_CURVE('',#541,#523,#280,.T.);
#663=EDGE_CURVE('',#542,#532,#281,.T.);
#664=EDGE_CURVE('',#543,#541,#282,.T.);
#665=EDGE_CURVE('',#543,#519,#283,.T.);
#666=EDGE_CURVE('',#542,#544,#284,.T.);
#667=EDGE_CURVE('',#544,#531,#285,.T.);
#668=EDGE_CURVE('',#544,#543,#286,.T.);
#669=EDGE_CURVE('',#537,#545,#287,.T.);
#670=EDGE_CURVE('',#545,#545,#67,.T.);
#671=EDGE_CURVE('',#538,#546,#288,.T.);
#672=EDGE_CURVE('',#546,#546,#68,.T.);
#673=EDGE_CURVE('',#539,#547,#289,.T.);
#674=EDGE_CURVE('',#547,#547,#69,.T.);
#675=EDGE_CURVE('',#540,#548,#290,.T.);
#676=EDGE_CURVE('',#548,#548,#70,.T.);
#677=EDGE_CURVE('',#549,#550,#291,.T.);
#678=EDGE_CURVE('',#550,#536,#292,.T.);
#679=EDGE_CURVE('',#549,#535,#293,.T.);
#680=EDGE_CURVE('',#551,#549,#294,.T.);
#681=EDGE_CURVE('',#551,#534,#295,.T.);
#682=EDGE_CURVE('',#552,#551,#296,.T.);
#683=EDGE_CURVE('',#552,#533,#297,.T.);
#684=EDGE_CURVE('',#550,#552,#298,.T.);
#685=EDGE_CURVE('',#553,#554,#299,.T.);
#686=EDGE_CURVE('',#554,#555,#300,.T.);
#687=EDGE_CURVE('',#556,#555,#301,.T.);
#688=EDGE_CURVE('',#553,#556,#302,.T.);
#689=EDGE_CURVE('',#557,#553,#71,.T.);
#690=EDGE_CURVE('',#558,#556,#72,.T.);
#691=EDGE_CURVE('',#557,#558,#303,.T.);
#692=EDGE_CURVE('',#559,#557,#304,.T.);
#693=EDGE_CURVE('',#560,#558,#305,.T.);
#694=EDGE_CURVE('',#559,#560,#306,.T.);
#695=EDGE_CURVE('',#561,#559,#73,.T.);
#696=EDGE_CURVE('',#562,#560,#74,.T.);
#697=EDGE_CURVE('',#561,#562,#307,.T.);
#698=EDGE_CURVE('',#563,#561,#308,.T.);
#699=EDGE_CURVE('',#564,#562,#309,.T.);
#700=EDGE_CURVE('',#563,#564,#310,.T.);
#701=EDGE_CURVE('',#565,#563,#75,.T.);
#702=EDGE_CURVE('',#566,#564,#76,.T.);
#703=EDGE_CURVE('',#565,#566,#311,.T.);
#704=EDGE_CURVE('',#567,#565,#312,.T.);
#705=EDGE_CURVE('',#568,#566,#313,.T.);
#706=EDGE_CURVE('',#567,#568,#314,.T.);
#707=EDGE_CURVE('',#554,#567,#77,.T.);
#708=EDGE_CURVE('',#555,#568,#78,.T.);
#709=EDGE_CURVE('',#569,#570,#315,.T.);
#710=EDGE_CURVE('',#570,#571,#316,.T.);
#711=EDGE_CURVE('',#572,#571,#317,.T.);
#712=EDGE_CURVE('',#569,#572,#318,.T.);
#713=EDGE_CURVE('',#573,#569,#79,.T.);
#714=EDGE_CURVE('',#574,#572,#80,.T.);
#715=EDGE_CURVE('',#573,#574,#319,.T.);
#716=EDGE_CURVE('',#575,#573,#320,.T.);
#717=EDGE_CURVE('',#576,#574,#321,.T.);
#718=EDGE_CURVE('',#575,#576,#322,.T.);
#719=EDGE_CURVE('',#577,#575,#81,.T.);
#720=EDGE_CURVE('',#578,#576,#82,.T.);
#721=EDGE_CURVE('',#577,#578,#323,.T.);
#722=EDGE_CURVE('',#579,#577,#324,.T.);
#723=EDGE_CURVE('',#580,#578,#325,.T.);
#724=EDGE_CURVE('',#579,#580,#326,.T.);
#725=EDGE_CURVE('',#581,#579,#83,.T.);
#726=EDGE_CURVE('',#582,#580,#84,.T.);
#727=EDGE_CURVE('',#581,#582,#327,.T.);
#728=EDGE_CURVE('',#583,#581,#328,.T.);
#729=EDGE_CURVE('',#584,#582,#329,.T.);
#730=EDGE_CURVE('',#583,#584,#330,.T.);
#731=EDGE_CURVE('',#570,#583,#85,.T.);
#732=EDGE_CURVE('',#571,#584,#86,.T.);
#733=EDGE_CURVE('',#585,#586,#331,.T.);
#734=EDGE_CURVE('',#586,#587,#332,.T.);
#735=EDGE_CURVE('',#588,#587,#333,.T.);
#736=EDGE_CURVE('',#585,#588,#334,.T.);
#737=EDGE_CURVE('',#589,#585,#87,.T.);
#738=EDGE_CURVE('',#590,#588,#88,.T.);
#739=EDGE_CURVE('',#589,#590,#335,.T.);
#740=EDGE_CURVE('',#591,#589,#336,.T.);
#741=EDGE_CURVE('',#592,#590,#337,.T.);
#742=EDGE_CURVE('',#591,#592,#338,.T.);
#743=EDGE_CURVE('',#593,#591,#89,.T.);
#744=EDGE_CURVE('',#594,#592,#90,.T.);
#745=EDGE_CURVE('',#593,#594,#339,.T.);
#746=EDGE_CURVE('',#595,#593,#340,.T.);
#747=EDGE_CURVE('',#596,#594,#341,.T.);
#748=EDGE_CURVE('',#595,#596,#342,.T.);
#749=EDGE_CURVE('',#597,#595,#91,.T.);
#750=EDGE_CURVE('',#598,#596,#92,.T.);
#751=EDGE_CURVE('',#597,#598,#343,.T.);
#752=EDGE_CURVE('',#599,#597,#344,.T.);
#753=EDGE_CURVE('',#600,#598,#345,.T.);
#754=EDGE_CURVE('',#599,#600,#346,.T.);
#755=EDGE_CURVE('',#586,#599,#93,.T.);
#756=EDGE_CURVE('',#587,#600,#94,.T.);
#757=EDGE_CURVE('',#601,#602,#347,.T.);
#758=EDGE_CURVE('',#601,#603,#348,.T.);
#759=EDGE_CURVE('',#604,#603,#349,.T.);
#760=EDGE_CURVE('',#602,#604,#350,.T.);
#761=EDGE_CURVE('',#602,#605,#351,.T.);
#762=EDGE_CURVE('',#606,#604,#352,.T.);
#763=EDGE_CURVE('',#605,#606,#353,.T.);
#764=EDGE_CURVE('',#607,#605,#354,.T.);
#765=EDGE_CURVE('',#608,#606,#355,.T.);
#766=EDGE_CURVE('',#607,#608,#356,.T.);
#767=EDGE_CURVE('',#601,#607,#357,.T.);
#768=EDGE_CURVE('',#603,#608,#358,.T.);
#769=EDGE_CURVE('',#609,#610,#359,.T.);
#770=EDGE_CURVE('',#610,#611,#360,.T.);
#771=EDGE_CURVE('',#612,#611,#361,.T.);
#772=EDGE_CURVE('',#609,#612,#362,.T.);
#773=EDGE_CURVE('',#613,#609,#363,.T.);
#774=EDGE_CURVE('',#614,#612,#364,.T.);
#775=EDGE_CURVE('',#613,#614,#365,.T.);
#776=EDGE_CURVE('',#615,#613,#366,.T.);
#777=EDGE_CURVE('',#616,#614,#367,.T.);
#778=EDGE_CURVE('',#615,#616,#368,.T.);
#779=EDGE_CURVE('',#610,#615,#369,.T.);
#780=EDGE_CURVE('',#611,#616,#370,.T.);
#781=EDGE_CURVE('',#617,#617,#95,.T.);
#782=EDGE_CURVE('',#617,#618,#371,.T.);
#783=EDGE_CURVE('',#618,#618,#96,.T.);
#784=EDGE_CURVE('',#619,#619,#97,.T.);
#785=EDGE_CURVE('',#619,#620,#372,.T.);
#786=EDGE_CURVE('',#620,#620,#98,.T.);
#787=EDGE_CURVE('',#621,#621,#99,.T.);
#788=EDGE_CURVE('',#621,#622,#373,.T.);
#789=EDGE_CURVE('',#622,#622,#100,.T.);
#790=EDGE_CURVE('',#623,#623,#101,.T.);
#791=EDGE_CURVE('',#623,#624,#374,.T.);
#792=EDGE_CURVE('',#624,#624,#102,.T.);
#793=EDGE_CURVE('',#625,#626,#375,.T.);
#794=EDGE_CURVE('',#626,#627,#376,.T.);
#795=EDGE_CURVE('',#628,#627,#377,.T.);
#796=EDGE_CURVE('',#625,#628,#378,.T.);
#797=EDGE_CURVE('',#629,#625,#379,.T.);
#798=EDGE_CURVE('',#630,#628,#380,.T.);
#799=EDGE_CURVE('',#629,#630,#381,.T.);
#800=EDGE_CURVE('',#631,#629,#382,.T.);
#801=EDGE_CURVE('',#632,#630,#383,.T.);
#802=EDGE_CURVE('',#631,#632,#384,.T.);
#803=EDGE_CURVE('',#626,#631,#385,.T.);
#804=EDGE_CURVE('',#627,#632,#386,.T.);
#805=ORIENTED_EDGE('',*,*,#633,.T.);
#806=ORIENTED_EDGE('',*,*,#634,.F.);
#807=ORIENTED_EDGE('',*,*,#635,.F.);
#808=ORIENTED_EDGE('',*,*,#636,.F.);
#809=ORIENTED_EDGE('',*,*,#637,.F.);
#810=ORIENTED_EDGE('',*,*,#638,.F.);
#811=ORIENTED_EDGE('',*,*,#639,.F.);
#812=ORIENTED_EDGE('',*,*,#640,.F.);
#813=ORIENTED_EDGE('',*,*,#641,.F.);
#814=ORIENTED_EDGE('',*,*,#642,.T.);
#815=ORIENTED_EDGE('',*,*,#638,.T.);
#816=ORIENTED_EDGE('',*,*,#643,.F.);
#817=ORIENTED_EDGE('',*,*,#636,.T.);
#818=ORIENTED_EDGE('',*,*,#644,.F.);
#819=ORIENTED_EDGE('',*,*,#645,.F.);
#820=ORIENTED_EDGE('',*,*,#646,.F.);
#821=ORIENTED_EDGE('',*,*,#639,.T.);
#822=ORIENTED_EDGE('',*,*,#642,.F.);
#823=ORIENTED_EDGE('',*,*,#647,.F.);
#824=ORIENTED_EDGE('',*,*,#644,.T.);
#825=ORIENTED_EDGE('',*,*,#635,.T.);
#826=ORIENTED_EDGE('',*,*,#648,.F.);
#827=ORIENTED_EDGE('',*,*,#648,.T.);
#828=ORIENTED_EDGE('',*,*,#634,.T.);
#829=ORIENTED_EDGE('',*,*,#649,.T.);
#830=ORIENTED_EDGE('',*,*,#650,.T.);
#831=ORIENTED_EDGE('',*,*,#651,.T.);
#832=ORIENTED_EDGE('',*,*,#640,.T.);
#833=ORIENTED_EDGE('',*,*,#646,.T.);
#834=ORIENTED_EDGE('',*,*,#652,.T.);
#835=ORIENTED_EDGE('',*,*,#653,.T.);
#836=ORIENTED_EDGE('',*,*,#654,.T.);
#837=ORIENTED_EDGE('',*,*,#655,.T.);
#838=ORIENTED_EDGE('',*,*,#656,.T.);
#839=ORIENTED_EDGE('',*,*,#657,.T.);
#840=ORIENTED_EDGE('',*,*,#658,.T.);
#841=ORIENTED_EDGE('',*,*,#659,.T.);
#842=ORIENTED_EDGE('',*,*,#660,.T.);
#843=ORIENTED_EDGE('',*,*,#661,.F.);
#844=ORIENTED_EDGE('',*,*,#662,.T.);
#845=ORIENTED_EDGE('',*,*,#637,.T.);
#846=ORIENTED_EDGE('',*,*,#651,.F.);
#847=ORIENTED_EDGE('',*,*,#663,.F.);
#848=ORIENTED_EDGE('',*,*,#643,.T.);
#849=ORIENTED_EDGE('',*,*,#662,.F.);
#850=ORIENTED_EDGE('',*,*,#664,.F.);
#851=ORIENTED_EDGE('',*,*,#665,.T.);
#852=ORIENTED_EDGE('',*,*,#666,.F.);
#853=ORIENTED_EDGE('',*,*,#663,.T.);
#854=ORIENTED_EDGE('',*,*,#650,.F.);
#855=ORIENTED_EDGE('',*,*,#667,.F.);
#856=ORIENTED_EDGE('',*,*,#668,.F.);
#857=ORIENTED_EDGE('',*,*,#667,.T.);
#858=ORIENTED_EDGE('',*,*,#649,.F.);
#859=ORIENTED_EDGE('',*,*,#633,.F.);
#860=ORIENTED_EDGE('',*,*,#665,.F.);
#861=ORIENTED_EDGE('',*,*,#657,.F.);
#862=ORIENTED_EDGE('',*,*,#669,.T.);
#863=ORIENTED_EDGE('',*,*,#670,.T.);
#864=ORIENTED_EDGE('',*,*,#669,.F.);
#865=ORIENTED_EDGE('',*,*,#658,.F.);
#866=ORIENTED_EDGE('',*,*,#671,.T.);
#867=ORIENTED_EDGE('',*,*,#672,.T.);
#868=ORIENTED_EDGE('',*,*,#671,.F.);
#869=ORIENTED_EDGE('',*,*,#659,.F.);
#870=ORIENTED_EDGE('',*,*,#673,.T.);
#871=ORIENTED_EDGE('',*,*,#674,.T.);
#872=ORIENTED_EDGE('',*,*,#673,.F.);
#873=ORIENTED_EDGE('',*,*,#660,.F.);
#874=ORIENTED_EDGE('',*,*,#675,.T.);
#875=ORIENTED_EDGE('',*,*,#676,.T.);
#876=ORIENTED_EDGE('',*,*,#675,.F.);
#877=ORIENTED_EDGE('',*,*,#677,.T.);
#878=ORIENTED_EDGE('',*,*,#678,.T.);
#879=ORIENTED_EDGE('',*,*,#655,.F.);
#880=ORIENTED_EDGE('',*,*,#679,.F.);
#881=ORIENTED_EDGE('',*,*,#680,.T.);
#882=ORIENTED_EDGE('',*,*,#679,.T.);
#883=ORIENTED_EDGE('',*,*,#654,.F.);
#884=ORIENTED_EDGE('',*,*,#681,.F.);
#885=ORIENTED_EDGE('',*,*,#682,.T.);
#886=ORIENTED_EDGE('',*,*,#681,.T.);
#887=ORIENTED_EDGE('',*,*,#653,.F.);
#888=ORIENTED_EDGE('',*,*,#683,.F.);
#889=ORIENTED_EDGE('',*,*,#647,.T.);
#890=ORIENTED_EDGE('',*,*,#656,.F.);
#891=ORIENTED_EDGE('',*,*,#678,.F.);
#892=ORIENTED_EDGE('',*,*,#684,.T.);
#893=ORIENTED_EDGE('',*,*,#683,.T.);
#894=ORIENTED_EDGE('',*,*,#652,.F.);
#895=ORIENTED_EDGE('',*,*,#645,.T.);
#896=ORIENTED_EDGE('',*,*,#641,.T.);
#897=ORIENTED_EDGE('',*,*,#664,.T.);
#898=ORIENTED_EDGE('',*,*,#661,.T.);
#899=ORIENTED_EDGE('',*,*,#666,.T.);
#900=ORIENTED_EDGE('',*,*,#668,.T.);
#901=ORIENTED_EDGE('',*,*,#684,.F.);
#902=ORIENTED_EDGE('',*,*,#677,.F.);
#903=ORIENTED_EDGE('',*,*,#680,.F.);
#904=ORIENTED_EDGE('',*,*,#682,.F.);
#905=ORIENTED_EDGE('',*,*,#670,.F.);
#906=ORIENTED_EDGE('',*,*,#672,.F.);
#907=ORIENTED_EDGE('',*,*,#674,.F.);
#908=ORIENTED_EDGE('',*,*,#676,.F.);
#909=ORIENTED_EDGE('',*,*,#685,.T.);
#910=ORIENTED_EDGE('',*,*,#686,.T.);
#911=ORIENTED_EDGE('',*,*,#687,.F.);
#912=ORIENTED_EDGE('',*,*,#688,.F.);
#913=ORIENTED_EDGE('',*,*,#689,.T.);
#914=ORIENTED_EDGE('',*,*,#688,.T.);
#915=ORIENTED_EDGE('',*,*,#690,.F.);
#916=ORIENTED_EDGE('',*,*,#691,.F.);
#917=ORIENTED_EDGE('',*,*,#692,.T.);
#918=ORIENTED_EDGE('',*,*,#691,.T.);
#919=ORIENTED_EDGE('',*,*,#693,.F.);
#920=ORIENTED_EDGE('',*,*,#694,.F.);
#921=ORIENTED_EDGE('',*,*,#695,.T.);
#922=ORIENTED_EDGE('',*,*,#694,.T.);
#923=ORIENTED_EDGE('',*,*,#696,.F.);
#924=ORIENTED_EDGE('',*,*,#697,.F.);
#925=ORIENTED_EDGE('',*,*,#698,.T.);
#926=ORIENTED_EDGE('',*,*,#697,.T.);
#927=ORIENTED_EDGE('',*,*,#699,.F.);
#928=ORIENTED_EDGE('',*,*,#700,.F.);
#929=ORIENTED_EDGE('',*,*,#701,.T.);
#930=ORIENTED_EDGE('',*,*,#700,.T.);
#931=ORIENTED_EDGE('',*,*,#702,.F.);
#932=ORIENTED_EDGE('',*,*,#703,.F.);
#933=ORIENTED_EDGE('',*,*,#704,.T.);
#934=ORIENTED_EDGE('',*,*,#703,.T.);
#935=ORIENTED_EDGE('',*,*,#705,.F.);
#936=ORIENTED_EDGE('',*,*,#706,.F.);
#937=ORIENTED_EDGE('',*,*,#707,.T.);
#938=ORIENTED_EDGE('',*,*,#706,.T.);
#939=ORIENTED_EDGE('',*,*,#708,.F.);
#940=ORIENTED_EDGE('',*,*,#686,.F.);
#941=ORIENTED_EDGE('',*,*,#709,.T.);
#942=ORIENTED_EDGE('',*,*,#710,.T.);
#943=ORIENTED_EDGE('',*,*,#711,.F.);
#944=ORIENTED_EDGE('',*,*,#712,.F.);
#945=ORIENTED_EDGE('',*,*,#713,.T.);
#946=ORIENTED_EDGE('',*,*,#712,.T.);
#947=ORIENTED_EDGE('',*,*,#714,.F.);
#948=ORIENTED_EDGE('',*,*,#715,.F.);
#949=ORIENTED_EDGE('',*,*,#716,.T.);
#950=ORIENTED_EDGE('',*,*,#715,.T.);
#951=ORIENTED_EDGE('',*,*,#717,.F.);
#952=ORIENTED_EDGE('',*,*,#718,.F.);
#953=ORIENTED_EDGE('',*,*,#719,.T.);
#954=ORIENTED_EDGE('',*,*,#718,.T.);
#955=ORIENTED_EDGE('',*,*,#720,.F.);
#956=ORIENTED_EDGE('',*,*,#721,.F.);
#957=ORIENTED_EDGE('',*,*,#722,.T.);
#958=ORIENTED_EDGE('',*,*,#721,.T.);
#959=ORIENTED_EDGE('',*,*,#723,.F.);
#960=ORIENTED_EDGE('',*,*,#724,.F.);
#961=ORIENTED_EDGE('',*,*,#725,.T.);
#962=ORIENTED_EDGE('',*,*,#724,.T.);
#963=ORIENTED_EDGE('',*,*,#726,.F.);
#964=ORIENTED_EDGE('',*,*,#727,.F.);
#965=ORIENTED_EDGE('',*,*,#728,.T.);
#966=ORIENTED_EDGE('',*,*,#727,.T.);
#967=ORIENTED_EDGE('',*,*,#729,.F.);
#968=ORIENTED_EDGE('',*,*,#730,.F.);
#969=ORIENTED_EDGE('',*,*,#731,.T.);
#970=ORIENTED_EDGE('',*,*,#730,.T.);
#971=ORIENTED_EDGE('',*,*,#732,.F.);
#972=ORIENTED_EDGE('',*,*,#710,.F.);
#973=ORIENTED_EDGE('',*,*,#733,.T.);
#974=ORIENTED_EDGE('',*,*,#734,.T.);
#975=ORIENTED_EDGE('',*,*,#735,.F.);
#976=ORIENTED_EDGE('',*,*,#736,.F.);
#977=ORIENTED_EDGE('',*,*,#737,.T.);
#978=ORIENTED_EDGE('',*,*,#736,.T.);
#979=ORIENTED_EDGE('',*,*,#738,.F.);
#980=ORIENTED_EDGE('',*,*,#739,.F.);
#981=ORIENTED_EDGE('',*,*,#740,.T.);
#982=ORIENTED_EDGE('',*,*,#739,.T.);
#983=ORIENTED_EDGE('',*,*,#741,.F.);
#984=ORIENTED_EDGE('',*,*,#742,.F.);
#985=ORIENTED_EDGE('',*,*,#743,.T.);
#986=ORIENTED_EDGE('',*,*,#742,.T.);
#987=ORIENTED_EDGE('',*,*,#744,.F.);
#988=ORIENTED_EDGE('',*,*,#745,.F.);
#989=ORIENTED_EDGE('',*,*,#746,.T.);
#990=ORIENTED_EDGE('',*,*,#745,.T.);
#991=ORIENTED_EDGE('',*,*,#747,.F.);
#992=ORIENTED_EDGE('',*,*,#748,.F.);
#993=ORIENTED_EDGE('',*,*,#749,.T.);
#994=ORIENTED_EDGE('',*,*,#748,.T.);
#995=ORIENTED_EDGE('',*,*,#750,.F.);
#996=ORIENTED_EDGE('',*,*,#751,.F.);
#997=ORIENTED_EDGE('',*,*,#752,.T.);
#998=ORIENTED_EDGE('',*,*,#751,.T.);
#999=ORIENTED_EDGE('',*,*,#753,.F.);
#1000=ORIENTED_EDGE('',*,*,#754,.F.);
#1001=ORIENTED_EDGE('',*,*,#755,.T.);
#1002=ORIENTED_EDGE('',*,*,#754,.T.);
#1003=ORIENTED_EDGE('',*,*,#756,.F.);
#1004=ORIENTED_EDGE('',*,*,#734,.F.);
#1005=ORIENTED_EDGE('',*,*,#757,.F.);
#1006=ORIENTED_EDGE('',*,*,#758,.T.);
#1007=ORIENTED_EDGE('',*,*,#759,.F.);
#1008=ORIENTED_EDGE('',*,*,#760,.F.);
#1009=ORIENTED_EDGE('',*,*,#761,.F.);
#1010=ORIENTED_EDGE('',*,*,#760,.T.);
#1011=ORIENTED_EDGE('',*,*,#762,.F.);
#1012=ORIENTED_EDGE('',*,*,#763,.F.);
#1013=ORIENTED_EDGE('',*,*,#764,.T.);
#1014=ORIENTED_EDGE('',*,*,#763,.T.);
#1015=ORIENTED_EDGE('',*,*,#765,.F.);
#1016=ORIENTED_EDGE('',*,*,#766,.F.);
#1017=ORIENTED_EDGE('',*,*,#767,.T.);
#1018=ORIENTED_EDGE('',*,*,#766,.T.);
#1019=ORIENTED_EDGE('',*,*,#768,.F.);
#1020=ORIENTED_EDGE('',*,*,#758,.F.);
#1021=ORIENTED_EDGE('',*,*,#768,.T.);
#1022=ORIENTED_EDGE('',*,*,#765,.T.);
#1023=ORIENTED_EDGE('',*,*,#762,.T.);
#1024=ORIENTED_EDGE('',*,*,#759,.T.);
#1025=ORIENTED_EDGE('',*,*,#756,.T.);
#1026=ORIENTED_EDGE('',*,*,#753,.T.);
#1027=ORIENTED_EDGE('',*,*,#750,.T.);
#1028=ORIENTED_EDGE('',*,*,#747,.T.);
#1029=ORIENTED_EDGE('',*,*,#744,.T.);
#1030=ORIENTED_EDGE('',*,*,#741,.T.);
#1031=ORIENTED_EDGE('',*,*,#738,.T.);
#1032=ORIENTED_EDGE('',*,*,#735,.T.);
#1033=ORIENTED_EDGE('',*,*,#732,.T.);
#1034=ORIENTED_EDGE('',*,*,#729,.T.);
#1035=ORIENTED_EDGE('',*,*,#726,.T.);
#1036=ORIENTED_EDGE('',*,*,#723,.T.);
#1037=ORIENTED_EDGE('',*,*,#720,.T.);
#1038=ORIENTED_EDGE('',*,*,#717,.T.);
#1039=ORIENTED_EDGE('',*,*,#714,.T.);
#1040=ORIENTED_EDGE('',*,*,#711,.T.);
#1041=ORIENTED_EDGE('',*,*,#708,.T.);
#1042=ORIENTED_EDGE('',*,*,#705,.T.);
#1043=ORIENTED_EDGE('',*,*,#702,.T.);
#1044=ORIENTED_EDGE('',*,*,#699,.T.);
#1045=ORIENTED_EDGE('',*,*,#696,.T.);
#1046=ORIENTED_EDGE('',*,*,#693,.T.);
#1047=ORIENTED_EDGE('',*,*,#690,.T.);
#1048=ORIENTED_EDGE('',*,*,#687,.T.);
#1049=ORIENTED_EDGE('',*,*,#767,.F.);
#1050=ORIENTED_EDGE('',*,*,#757,.T.);
#1051=ORIENTED_EDGE('',*,*,#761,.T.);
#1052=ORIENTED_EDGE('',*,*,#764,.F.);
#1053=ORIENTED_EDGE('',*,*,#755,.F.);
#1054=ORIENTED_EDGE('',*,*,#733,.F.);
#1055=ORIENTED_EDGE('',*,*,#737,.F.);
#1056=ORIENTED_EDGE('',*,*,#740,.F.);
#1057=ORIENTED_EDGE('',*,*,#743,.F.);
#1058=ORIENTED_EDGE('',*,*,#746,.F.);
#1059=ORIENTED_EDGE('',*,*,#749,.F.);
#1060=ORIENTED_EDGE('',*,*,#752,.F.);
#1061=ORIENTED_EDGE('',*,*,#731,.F.);
#1062=ORIENTED_EDGE('',*,*,#709,.F.);
#1063=ORIENTED_EDGE('',*,*,#713,.F.);
#1064=ORIENTED_EDGE('',*,*,#716,.F.);
#1065=ORIENTED_EDGE('',*,*,#719,.F.);
#1066=ORIENTED_EDGE('',*,*,#722,.F.);
#1067=ORIENTED_EDGE('',*,*,#725,.F.);
#1068=ORIENTED_EDGE('',*,*,#728,.F.);
#1069=ORIENTED_EDGE('',*,*,#707,.F.);
#1070=ORIENTED_EDGE('',*,*,#685,.F.);
#1071=ORIENTED_EDGE('',*,*,#689,.F.);
#1072=ORIENTED_EDGE('',*,*,#692,.F.);
#1073=ORIENTED_EDGE('',*,*,#695,.F.);
#1074=ORIENTED_EDGE('',*,*,#698,.F.);
#1075=ORIENTED_EDGE('',*,*,#701,.F.);
#1076=ORIENTED_EDGE('',*,*,#704,.F.);
#1077=ORIENTED_EDGE('',*,*,#769,.T.);
#1078=ORIENTED_EDGE('',*,*,#770,.T.);
#1079=ORIENTED_EDGE('',*,*,#771,.F.);
#1080=ORIENTED_EDGE('',*,*,#772,.F.);
#1081=ORIENTED_EDGE('',*,*,#773,.T.);
#1082=ORIENTED_EDGE('',*,*,#772,.T.);
#1083=ORIENTED_EDGE('',*,*,#774,.F.);
#1084=ORIENTED_EDGE('',*,*,#775,.F.);
#1085=ORIENTED_EDGE('',*,*,#776,.T.);
#1086=ORIENTED_EDGE('',*,*,#775,.T.);
#1087=ORIENTED_EDGE('',*,*,#777,.F.);
#1088=ORIENTED_EDGE('',*,*,#778,.F.);
#1089=ORIENTED_EDGE('',*,*,#779,.T.);
#1090=ORIENTED_EDGE('',*,*,#778,.T.);
#1091=ORIENTED_EDGE('',*,*,#780,.F.);
#1092=ORIENTED_EDGE('',*,*,#770,.F.);
#1093=ORIENTED_EDGE('',*,*,#781,.F.);
#1094=ORIENTED_EDGE('',*,*,#782,.T.);
#1095=ORIENTED_EDGE('',*,*,#783,.T.);
#1096=ORIENTED_EDGE('',*,*,#782,.F.);
#1097=ORIENTED_EDGE('',*,*,#784,.F.);
#1098=ORIENTED_EDGE('',*,*,#785,.T.);
#1099=ORIENTED_EDGE('',*,*,#786,.T.);
#1100=ORIENTED_EDGE('',*,*,#785,.F.);
#1101=ORIENTED_EDGE('',*,*,#787,.F.);
#1102=ORIENTED_EDGE('',*,*,#788,.T.);
#1103=ORIENTED_EDGE('',*,*,#789,.T.);
#1104=ORIENTED_EDGE('',*,*,#788,.F.);
#1105=ORIENTED_EDGE('',*,*,#790,.F.);
#1106=ORIENTED_EDGE('',*,*,#791,.T.);
#1107=ORIENTED_EDGE('',*,*,#792,.T.);
#1108=ORIENTED_EDGE('',*,*,#791,.F.);
#1109=ORIENTED_EDGE('',*,*,#793,.T.);
#1110=ORIENTED_EDGE('',*,*,#794,.T.);
#1111=ORIENTED_EDGE('',*,*,#795,.F.);
#1112=ORIENTED_EDGE('',*,*,#796,.F.);
#1113=ORIENTED_EDGE('',*,*,#797,.T.);
#1114=ORIENTED_EDGE('',*,*,#796,.T.);
#1115=ORIENTED_EDGE('',*,*,#798,.F.);
#1116=ORIENTED_EDGE('',*,*,#799,.F.);
#1117=ORIENTED_EDGE('',*,*,#800,.T.);
#1118=ORIENTED_EDGE('',*,*,#799,.T.);
#1119=ORIENTED_EDGE('',*,*,#801,.F.);
#1120=ORIENTED_EDGE('',*,*,#802,.F.);
#1121=ORIENTED_EDGE('',*,*,#803,.T.);
#1122=ORIENTED_EDGE('',*,*,#802,.T.);
#1123=ORIENTED_EDGE('',*,*,#804,.F.);
#1124=ORIENTED_EDGE('',*,*,#794,.F.);
#1125=ORIENTED_EDGE('',*,*,#804,.T.);
#1126=ORIENTED_EDGE('',*,*,#801,.T.);
#1127=ORIENTED_EDGE('',*,*,#798,.T.);
#1128=ORIENTED_EDGE('',*,*,#795,.T.);
#1129=ORIENTED_EDGE('',*,*,#790,.T.);
#1130=ORIENTED_EDGE('',*,*,#787,.T.);
#1131=ORIENTED_EDGE('',*,*,#784,.T.);
#1132=ORIENTED_EDGE('',*,*,#781,.T.);
#1133=ORIENTED_EDGE('',*,*,#780,.T.);
#1134=ORIENTED_EDGE('',*,*,#777,.T.);
#1135=ORIENTED_EDGE('',*,*,#774,.T.);
#1136=ORIENTED_EDGE('',*,*,#771,.T.);
#1137=ORIENTED_EDGE('',*,*,#803,.F.);
#1138=ORIENTED_EDGE('',*,*,#793,.F.);
#1139=ORIENTED_EDGE('',*,*,#797,.F.);
#1140=ORIENTED_EDGE('',*,*,#800,.F.);
#1141=ORIENTED_EDGE('',*,*,#792,.F.);
#1142=ORIENTED_EDGE('',*,*,#789,.F.);
#1143=ORIENTED_EDGE('',*,*,#786,.F.);
#1144=ORIENTED_EDGE('',*,*,#783,.F.);
#1145=ORIENTED_EDGE('',*,*,#779,.F.);
#1146=ORIENTED_EDGE('',*,*,#769,.F.);
#1147=ORIENTED_EDGE('',*,*,#773,.F.);
#1148=ORIENTED_EDGE('',*,*,#776,.F.);
#1149=PLANE('',#1273);
#1150=PLANE('',#1274);
#1151=PLANE('',#1275);
#1152=PLANE('',#1276);
#1153=PLANE('',#1277);
#1154=PLANE('',#1278);
#1155=PLANE('',#1283);
#1156=PLANE('',#1284);
#1157=PLANE('',#1285);
#1158=PLANE('',#1286);
#1159=PLANE('',#1295);
#1160=PLANE('',#1296);
#1161=PLANE('',#1297);
#1162=PLANE('',#1298);
#1163=PLANE('',#1299);
#1164=PLANE('',#1300);
#1165=PLANE('',#1301);
#1166=PLANE('',#1305);
#1167=PLANE('',#1309);
#1168=PLANE('',#1313);
#1169=PLANE('',#1317);
#1170=PLANE('',#1321);
#1171=PLANE('',#1325);
#1172=PLANE('',#1329);
#1173=PLANE('',#1333);
#1174=PLANE('',#1337);
#1175=PLANE('',#1341);
#1176=PLANE('',#1345);
#1177=PLANE('',#1349);
#1178=PLANE('',#1350);
#1179=PLANE('',#1351);
#1180=PLANE('',#1352);
#1181=PLANE('',#1353);
#1182=PLANE('',#1354);
#1183=PLANE('',#1355);
#1184=PLANE('',#1356);
#1185=PLANE('',#1357);
#1186=PLANE('',#1358);
#1187=PLANE('',#1371);
#1188=PLANE('',#1372);
#1189=PLANE('',#1373);
#1190=PLANE('',#1374);
#1191=PLANE('',#1375);
#1192=PLANE('',#1376);
#1193=ADVANCED_FACE('',(#103),#1149,.F.);
#1194=ADVANCED_FACE('',(#104),#1150,.F.);
#1195=ADVANCED_FACE('',(#105),#1151,.F.);
#1196=ADVANCED_FACE('',(#106),#1152,.F.);
#1197=ADVANCED_FACE('',(#107),#1153,.F.);
#1198=ADVANCED_FACE('',(#108,#39,#40,#41,#42),#1154,.T.);
#1199=ADVANCED_FACE('',(#109),#1155,.T.);
#1200=ADVANCED_FACE('',(#110),#1156,.T.);
#1201=ADVANCED_FACE('',(#111),#1157,.T.);
#1202=ADVANCED_FACE('',(#112),#1158,.T.);
#1203=ADVANCED_FACE('',(#113),#19,.F.);
#1204=ADVANCED_FACE('',(#114),#20,.F.);
#1205=ADVANCED_FACE('',(#115),#21,.F.);
#1206=ADVANCED_FACE('',(#116),#22,.F.);
#1207=ADVANCED_FACE('',(#117),#1159,.T.);
#1208=ADVANCED_FACE('',(#118),#1160,.T.);
#1209=ADVANCED_FACE('',(#119),#1161,.T.);
#1210=ADVANCED_FACE('',(#120),#1162,.T.);
#1211=ADVANCED_FACE('',(#121),#1163,.T.);
#1212=ADVANCED_FACE('',(#122,#43,#44,#45,#46),#1164,.F.);
#1213=ADVANCED_FACE('',(#123),#1165,.T.);
#1214=ADVANCED_FACE('',(#124),#23,.F.);
#1215=ADVANCED_FACE('',(#125),#1166,.T.);
#1216=ADVANCED_FACE('',(#126),#24,.F.);
#1217=ADVANCED_FACE('',(#127),#1167,.T.);
#1218=ADVANCED_FACE('',(#128),#25,.F.);
#1219=ADVANCED_FACE('',(#129),#1168,.T.);
#1220=ADVANCED_FACE('',(#130),#26,.F.);
#1221=ADVANCED_FACE('',(#131),#1169,.T.);
#1222=ADVANCED_FACE('',(#132),#27,.F.);
#1223=ADVANCED_FACE('',(#133),#1170,.T.);
#1224=ADVANCED_FACE('',(#134),#28,.F.);
#1225=ADVANCED_FACE('',(#135),#1171,.T.);
#1226=ADVANCED_FACE('',(#136),#29,.F.);
#1227=ADVANCED_FACE('',(#137),#1172,.T.);
#1228=ADVANCED_FACE('',(#138),#30,.F.);
#1229=ADVANCED_FACE('',(#139),#1173,.T.);
#1230=ADVANCED_FACE('',(#140),#31,.F.);
#1231=ADVANCED_FACE('',(#141),#1174,.T.);
#1232=ADVANCED_FACE('',(#142),#32,.F.);
#1233=ADVANCED_FACE('',(#143),#1175,.T.);
#1234=ADVANCED_FACE('',(#144),#33,.F.);
#1235=ADVANCED_FACE('',(#145),#1176,.T.);
#1236=ADVANCED_FACE('',(#146),#34,.F.);
#1237=ADVANCED_FACE('',(#147),#1177,.T.);
#1238=ADVANCED_FACE('',(#148),#1178,.T.);
#1239=ADVANCED_FACE('',(#149),#1179,.T.);
#1240=ADVANCED_FACE('',(#150),#1180,.T.);
#1241=ADVANCED_FACE('',(#151,#47,#48,#49),#1181,.T.);
#1242=ADVANCED_FACE('',(#152,#50,#51,#52),#1182,.F.);
#1243=ADVANCED_FACE('',(#153),#1183,.T.);
#1244=ADVANCED_FACE('',(#154),#1184,.T.);
#1245=ADVANCED_FACE('',(#155),#1185,.T.);
#1246=ADVANCED_FACE('',(#156),#1186,.T.);
#1247=ADVANCED_FACE('',(#157),#35,.F.);
#1248=ADVANCED_FACE('',(#158),#36,.F.);
#1249=ADVANCED_FACE('',(#159),#37,.F.);
#1250=ADVANCED_FACE('',(#160),#38,.F.);
#1251=ADVANCED_FACE('',(#161),#1187,.T.);
#1252=ADVANCED_FACE('',(#162),#1188,.T.);
#1253=ADVANCED_FACE('',(#163),#1189,.T.);
#1254=ADVANCED_FACE('',(#164),#1190,.T.);
#1255=ADVANCED_FACE('',(#165,#53,#54,#55,#56,#57),#1191,.T.);
#1256=ADVANCED_FACE('',(#166,#58,#59,#60,#61,#62),#1192,.F.);
#1257=CLOSED_SHELL('',(#1193,#1194,#1195,#1196,#1197,#1198,#1199,#1200,
#1201,#1202,#1203,#1204,#1205,#1206,#1207,#1208,#1209,#1210,#1211,#1212));
#1258=CLOSED_SHELL('',(#1213,#1214,#1215,#1216,#1217,#1218,#1219,#1220,
#1221,#1222,#1223,#1224,#1225,#1226,#1227,#1228,#1229,#1230,#1231,#1232,
#1233,#1234,#1235,#1236,#1237,#1238,#1239,#1240,#1241,#1242));
#1259=CLOSED_SHELL('',(#1243,#1244,#1245,#1246,#1247,#1248,#1249,#1250,
#1251,#1252,#1253,#1254,#1255,#1256));
#1260=DERIVED_UNIT_ELEMENT(#1262,1.);
#1261=DERIVED_UNIT_ELEMENT(#2075,-3.);
#1262=(
MASS_UNIT()
NAMED_UNIT(*)
SI_UNIT(.KILO.,.GRAM.)
);
#1263=DERIVED_UNIT((#1260,#1261));
#1264=MEASURE_REPRESENTATION_ITEM('density measure',
POSITIVE_RATIO_MEASURE(7850.),#1263);
#1265=PROPERTY_DEFINITION_REPRESENTATION(#1270,#1267);
#1266=PROPERTY_DEFINITION_REPRESENTATION(#1271,#1268);
#1267=REPRESENTATION('material name',(#1269),#2072);
#1268=REPRESENTATION('density',(#1264),#2072);
#1269=DESCRIPTIVE_REPRESENTATION_ITEM('Steel','Steel');
#1270=PROPERTY_DEFINITION('material property','material name',#2082);
#1271=PROPERTY_DEFINITION('material property','density of part',#2082);
#1272=AXIS2_PLACEMENT_3D('',#1719,#1377,#1378);
#1273=AXIS2_PLACEMENT_3D('',#1720,#1379,#1380);
#1274=AXIS2_PLACEMENT_3D('',#1729,#1385,#1386);
#1275=AXIS2_PLACEMENT_3D('',#1738,#1391,#1392);
#1276=AXIS2_PLACEMENT_3D('',#1745,#1397,#1398);
#1277=AXIS2_PLACEMENT_3D('',#1749,#1401,#1402);
#1278=AXIS2_PLACEMENT_3D('',#1753,#1405,#1406);
#1279=AXIS2_PLACEMENT_3D('',#1769,#1415,#1416);
#1280=AXIS2_PLACEMENT_3D('',#1771,#1417,#1418);
#1281=AXIS2_PLACEMENT_3D('',#1773,#1419,#1420);
#1282=AXIS2_PLACEMENT_3D('',#1775,#1421,#1422);
#1283=AXIS2_PLACEMENT_3D('',#1776,#1423,#1424);
#1284=AXIS2_PLACEMENT_3D('',#1782,#1428,#1429);
#1285=AXIS2_PLACEMENT_3D('',#1786,#1432,#1433);
#1286=AXIS2_PLACEMENT_3D('',#1790,#1436,#1437);
#1287=AXIS2_PLACEMENT_3D('',#1792,#1439,#1440);
#1288=AXIS2_PLACEMENT_3D('',#1795,#1442,#1443);
#1289=AXIS2_PLACEMENT_3D('',#1796,#1444,#1445);
#1290=AXIS2_PLACEMENT_3D('',#1799,#1447,#1448);
#1291=AXIS2_PLACEMENT_3D('',#1800,#1449,#1450);
#1292=AXIS2_PLACEMENT_3D('',#1803,#1452,#1453);
#1293=AXIS2_PLACEMENT_3D('',#1804,#1454,#1455);
#1294=AXIS2_PLACEMENT_3D('',#1807,#1457,#1458);
#1295=AXIS2_PLACEMENT_3D('',#1808,#1459,#1460);
#1296=AXIS2_PLACEMENT_3D('',#1814,#1464,#1465);
#1297=AXIS2_PLACEMENT_3D('',#1818,#1468,#1469);
#1298=AXIS2_PLACEMENT_3D('',#1822,#1472,#1473);
#1299=AXIS2_PLACEMENT_3D('',#1824,#1475,#1476);
#1300=AXIS2_PLACEMENT_3D('',#1825,#1477,#1478);
#1301=AXIS2_PLACEMENT_3D('',#1826,#1479,#1480);
#1302=AXIS2_PLACEMENT_3D('',#1835,#1485,#1486);
#1303=AXIS2_PLACEMENT_3D('',#1837,#1487,#1488);
#1304=AXIS2_PLACEMENT_3D('',#1839,#1489,#1490);
#1305=AXIS2_PLACEMENT_3D('',#1841,#1492,#1493);
#1306=AXIS2_PLACEMENT_3D('',#1847,#1497,#1498);
#1307=AXIS2_PLACEMENT_3D('',#1849,#1499,#1500);
#1308=AXIS2_PLACEMENT_3D('',#1851,#1501,#1502);
#1309=AXIS2_PLACEMENT_3D('',#1853,#1504,#1505);
#1310=AXIS2_PLACEMENT_3D('',#1859,#1509,#1510);
#1311=AXIS2_PLACEMENT_3D('',#1861,#1511,#1512);
#1312=AXIS2_PLACEMENT_3D('',#1863,#1513,#1514);
#1313=AXIS2_PLACEMENT_3D('',#1865,#1516,#1517);
#1314=AXIS2_PLACEMENT_3D('',#1871,#1521,#1522);
#1315=AXIS2_PLACEMENT_3D('',#1872,#1523,#1524);
#1316=AXIS2_PLACEMENT_3D('',#1873,#1525,#1526);
#1317=AXIS2_PLACEMENT_3D('',#1874,#1527,#1528);
#1318=AXIS2_PLACEMENT_3D('',#1883,#1533,#1534);
#1319=AXIS2_PLACEMENT_3D('',#1885,#1535,#1536);
#1320=AXIS2_PLACEMENT_3D('',#1887,#1537,#1538);
#1321=AXIS2_PLACEMENT_3D('',#1889,#1540,#1541);
#1322=AXIS2_PLACEMENT_3D('',#1895,#1545,#1546);
#1323=AXIS2_PLACEMENT_3D('',#1897,#1547,#1548);
#1324=AXIS2_PLACEMENT_3D('',#1899,#1549,#1550);
#1325=AXIS2_PLACEMENT_3D('',#1901,#1552,#1553);
#1326=AXIS2_PLACEMENT_3D('',#1907,#1557,#1558);
#1327=AXIS2_PLACEMENT_3D('',#1909,#1559,#1560);
#1328=AXIS2_PLACEMENT_3D('',#1911,#1561,#1562);
#1329=AXIS2_PLACEMENT_3D('',#1913,#1564,#1565);
#1330=AXIS2_PLACEMENT_3D('',#1919,#1569,#1570);
#1331=AXIS2_PLACEMENT_3D('',#1920,#1571,#1572);
#1332=AXIS2_PLACEMENT_3D('',#1921,#1573,#1574);
#1333=AXIS2_PLACEMENT_3D('',#1922,#1575,#1576);
#1334=AXIS2_PLACEMENT_3D('',#1931,#1581,#1582);
#1335=AXIS2_PLACEMENT_3D('',#1933,#1583,#1584);
#1336=AXIS2_PLACEMENT_3D('',#1935,#1585,#1586);
#1337=AXIS2_PLACEMENT_3D('',#1937,#1588,#1589);
#1338=AXIS2_PLACEMENT_3D('',#1943,#1593,#1594);
#1339=AXIS2_PLACEMENT_3D('',#1945,#1595,#1596);
#1340=AXIS2_PLACEMENT_3D('',#1947,#1597,#1598);
#1341=AXIS2_PLACEMENT_3D('',#1949,#1600,#1601);
#1342=AXIS2_PLACEMENT_3D('',#1955,#1605,#1606);
#1343=AXIS2_PLACEMENT_3D('',#1957,#1607,#1608);
#1344=AXIS2_PLACEMENT_3D('',#1959,#1609,#1610);
#1345=AXIS2_PLACEMENT_3D('',#1961,#1612,#1613);
#1346=AXIS2_PLACEMENT_3D('',#1967,#1617,#1618);
#1347=AXIS2_PLACEMENT_3D('',#1968,#1619,#1620);
#1348=AXIS2_PLACEMENT_3D('',#1969,#1621,#1622);
#1349=AXIS2_PLACEMENT_3D('',#1970,#1623,#1624);
#1350=AXIS2_PLACEMENT_3D('',#1979,#1629,#1630);
#1351=AXIS2_PLACEMENT_3D('',#1985,#1634,#1635);
#1352=AXIS2_PLACEMENT_3D('',#1991,#1639,#1640);
#1353=AXIS2_PLACEMENT_3D('',#1994,#1643,#1644);
#1354=AXIS2_PLACEMENT_3D('',#1995,#1645,#1646);
#1355=AXIS2_PLACEMENT_3D('',#1996,#1647,#1648);
#1356=AXIS2_PLACEMENT_3D('',#2005,#1653,#1654);
#1357=AXIS2_PLACEMENT_3D('',#2011,#1658,#1659);
#1358=AXIS2_PLACEMENT_3D('',#2017,#1663,#1664);
#1359=AXIS2_PLACEMENT_3D('',#2020,#1667,#1668);
#1360=AXIS2_PLACEMENT_3D('',#2022,#1669,#1670);
#1361=AXIS2_PLACEMENT_3D('',#2025,#1672,#1673);
#1362=AXIS2_PLACEMENT_3D('',#2026,#1674,#1675);
#1363=AXIS2_PLACEMENT_3D('',#2028,#1676,#1677);
#1364=AXIS2_PLACEMENT_3D('',#2031,#1679,#1680);
#1365=AXIS2_PLACEMENT_3D('',#2032,#1681,#1682);
#1366=AXIS2_PLACEMENT_3D('',#2034,#1683,#1684);
#1367=AXIS2_PLACEMENT_3D('',#2037,#1686,#1687);
#1368=AXIS2_PLACEMENT_3D('',#2038,#1688,#1689);
#1369=AXIS2_PLACEMENT_3D('',#2040,#1690,#1691);
#1370=AXIS2_PLACEMENT_3D('',#2043,#1693,#1694);
#1371=AXIS2_PLACEMENT_3D('',#2044,#1695,#1696);
#1372=AXIS2_PLACEMENT_3D('',#2053,#1701,#1702);
#1373=AXIS2_PLACEMENT_3D('',#2059,#1706,#1707);
#1374=AXIS2_PLACEMENT_3D('',#2065,#1711,#1712);
#1375=AXIS2_PLACEMENT_3D('',#2068,#1715,#1716);
#1376=AXIS2_PLACEMENT_3D('',#2069,#1717,#1718);
#1377=DIRECTION('axis',(0.,0.,1.));
#1378=DIRECTION('refdir',(1.,0.,0.));
#1379=DIRECTION('center_axis',(1.,0.,0.));
#1380=DIRECTION('ref_axis',(0.,0.,-1.));
#1381=DIRECTION('',(0.,0.,1.));
#1382=DIRECTION('',(0.,-1.,0.));
#1383=DIRECTION('',(0.,0.,1.));
#1384=DIRECTION('',(0.,1.,0.));
#1385=DIRECTION('center_axis',(1.,0.,0.));
#1386=DIRECTION('ref_axis',(0.,0.,-1.));
#1387=DIRECTION('',(0.,0.,1.));
#1388=DIRECTION('',(0.,1.,0.));
#1389=DIRECTION('',(0.,-1.70803542250024E-16,-1.));
#1390=DIRECTION('',(0.,-1.,0.));
#1391=DIRECTION('center_axis',(0.,0.,-1.));
#1392=DIRECTION('ref_axis',(0.,1.,0.));
#1393=DIRECTION('',(0.,1.,0.));
#1394=DIRECTION('',(1.,0.,0.));
#1395=DIRECTION('',(0.,-1.,0.));
#1396=DIRECTION('',(1.,0.,0.));
#1397=DIRECTION('center_axis',(0.,-1.,1.70803542250024E-16));
#1398=DIRECTION('ref_axis',(0.,-1.70803542250024E-16,-1.));
#1399=DIRECTION('',(0.,-1.70803542250024E-16,-1.));
#1400=DIRECTION('',(-1.,0.,0.));
#1401=DIRECTION('center_axis',(0.,1.,0.));
#1402=DIRECTION('ref_axis',(0.,0.,1.));
#1403=DIRECTION('',(0.,0.,1.));
#1404=DIRECTION('',(1.,0.,0.));
#1405=DIRECTION('center_axis',(0.,0.,1.));
#1406=DIRECTION('ref_axis',(1.,0.,0.));
#1407=DIRECTION('',(1.,0.,0.));
#1408=DIRECTION('',(0.,-1.,0.));
#1409=DIRECTION('',(-1.,0.,0.));
#1410=DIRECTION('',(0.,-1.,0.));
#1411=DIRECTION('',(1.,0.,0.));
#1412=DIRECTION('',(0.,1.,0.));
#1413=DIRECTION('',(-1.,0.,0.));
#1414=DIRECTION('',(0.,-1.,0.));
#1415=DIRECTION('center_axis',(0.,0.,-1.));
#1416=DIRECTION('ref_axis',(1.,0.,0.));
#1417=DIRECTION('center_axis',(0.,0.,-1.));
#1418=DIRECTION('ref_axis',(1.,0.,0.));
#1419=DIRECTION('center_axis',(0.,0.,-1.));
#1420=DIRECTION('ref_axis',(1.,0.,0.));
#1421=DIRECTION('center_axis',(0.,0.,-1.));
#1422=DIRECTION('ref_axis',(1.,0.,0.));
#1423=DIRECTION('center_axis',(0.,1.,0.));
#1424=DIRECTION('ref_axis',(-1.,0.,0.));
#1425=DIRECTION('',(1.,0.,0.));
#1426=DIRECTION('',(0.,0.,1.));
#1427=DIRECTION('',(0.,0.,1.));
#1428=DIRECTION('center_axis',(1.,0.,0.));
#1429=DIRECTION('ref_axis',(0.,1.,0.));
#1430=DIRECTION('',(0.,-1.,0.));
#1431=DIRECTION('',(0.,0.,1.));
#1432=DIRECTION('center_axis',(-1.,0.,0.));
#1433=DIRECTION('ref_axis',(0.,-1.,0.));
#1434=DIRECTION('',(0.,1.,0.));
#1435=DIRECTION('',(0.,0.,1.));
#1436=DIRECTION('center_axis',(0.,-1.,0.));
#1437=DIRECTION('ref_axis',(1.,0.,0.));
#1438=DIRECTION('',(-1.,0.,0.));
#1439=DIRECTION('center_axis',(0.,0.,1.));
#1440=DIRECTION('ref_axis',(1.,0.,0.));
#1441=DIRECTION('',(0.,0.,-1.));
#1442=DIRECTION('center_axis',(0.,0.,-1.));
#1443=DIRECTION('ref_axis',(1.,0.,0.));
#1444=DIRECTION('center_axis',(0.,0.,1.));
#1445=DIRECTION('ref_axis',(1.,0.,0.));
#1446=DIRECTION('',(0.,0.,-1.));
#1447=DIRECTION('center_axis',(0.,0.,-1.));
#1448=DIRECTION('ref_axis',(1.,0.,0.));
#1449=DIRECTION('center_axis',(0.,0.,1.));
#1450=DIRECTION('ref_axis',(1.,0.,0.));
#1451=DIRECTION('',(0.,0.,-1.));
#1452=DIRECTION('center_axis',(0.,0.,-1.));
#1453=DIRECTION('ref_axis',(1.,0.,0.));
#1454=DIRECTION('center_axis',(0.,0.,1.));
#1455=DIRECTION('ref_axis',(1.,0.,0.));
#1456=DIRECTION('',(0.,0.,-1.));
#1457=DIRECTION('center_axis',(0.,0.,-1.));
#1458=DIRECTION('ref_axis',(1.,0.,0.));
#1459=DIRECTION('center_axis',(0.,1.,0.));
#1460=DIRECTION('ref_axis',(-1.,0.,0.));
#1461=DIRECTION('',(-1.,0.,0.));
#1462=DIRECTION('',(0.,0.,1.));
#1463=DIRECTION('',(0.,0.,1.));
#1464=DIRECTION('center_axis',(1.,0.,0.));
#1465=DIRECTION('ref_axis',(0.,1.,0.));
#1466=DIRECTION('',(0.,1.,0.));
#1467=DIRECTION('',(0.,0.,1.));
#1468=DIRECTION('center_axis',(0.,-1.,0.));
#1469=DIRECTION('ref_axis',(1.,0.,0.));
#1470=DIRECTION('',(1.,0.,0.));
#1471=DIRECTION('',(0.,0.,1.));
#1472=DIRECTION('center_axis',(-1.,0.,0.));
#1473=DIRECTION('ref_axis',(0.,-1.,0.));
#1474=DIRECTION('',(0.,-1.,0.));
#1475=DIRECTION('center_axis',(0.,0.,1.));
#1476=DIRECTION('ref_axis',(1.,0.,0.));
#1477=DIRECTION('center_axis',(0.,0.,1.));
#1478=DIRECTION('ref_axis',(1.,0.,0.));
#1479=DIRECTION('center_axis',(1.,0.,0.));
#1480=DIRECTION('ref_axis',(0.,1.,0.));
#1481=DIRECTION('',(0.,1.,0.));
#1482=DIRECTION('',(0.,0.,1.));
#1483=DIRECTION('',(0.,1.,0.));
#1484=DIRECTION('',(0.,0.,1.));
#1485=DIRECTION('center_axis',(0.,0.,1.));
#1486=DIRECTION('ref_axis',(-1.,0.,0.));
#1487=DIRECTION('center_axis',(0.,0.,-1.));
#1488=DIRECTION('ref_axis',(-1.,0.,0.));
#1489=DIRECTION('center_axis',(0.,0.,-1.));
#1490=DIRECTION('ref_axis',(-1.,0.,0.));
#1491=DIRECTION('',(0.,0.,1.));
#1492=DIRECTION('center_axis',(0.,1.,0.));
#1493=DIRECTION('ref_axis',(-1.,0.,0.));
#1494=DIRECTION('',(-1.,0.,0.));
#1495=DIRECTION('',(-1.,0.,0.));
#1496=DIRECTION('',(0.,0.,1.));
#1497=DIRECTION('center_axis',(0.,0.,1.));
#1498=DIRECTION('ref_axis',(0.,-1.,0.));
#1499=DIRECTION('center_axis',(0.,0.,-1.));
#1500=DIRECTION('ref_axis',(0.,-1.,0.));
#1501=DIRECTION('center_axis',(0.,0.,-1.));
#1502=DIRECTION('ref_axis',(0.,-1.,0.));
#1503=DIRECTION('',(0.,0.,1.));
#1504=DIRECTION('center_axis',(-1.,0.,0.));
#1505=DIRECTION('ref_axis',(0.,-1.,0.));
#1506=DIRECTION('',(0.,-1.,0.));
#1507=DIRECTION('',(0.,-1.,0.));
#1508=DIRECTION('',(0.,0.,1.));
#1509=DIRECTION('center_axis',(0.,0.,1.));
#1510=DIRECTION('ref_axis',(1.,0.,0.));
#1511=DIRECTION('center_axis',(0.,0.,-1.));
#1512=DIRECTION('ref_axis',(1.,0.,0.));
#1513=DIRECTION('center_axis',(0.,0.,-1.));
#1514=DIRECTION('ref_axis',(1.,0.,0.));
#1515=DIRECTION('',(0.,0.,1.));
#1516=DIRECTION('center_axis',(0.,-1.,0.));
#1517=DIRECTION('ref_axis',(1.,0.,0.));
#1518=DIRECTION('',(1.,0.,0.));
#1519=DIRECTION('',(1.,0.,0.));
#1520=DIRECTION('',(0.,0.,1.));
#1521=DIRECTION('center_axis',(0.,0.,1.));
#1522=DIRECTION('ref_axis',(0.,1.,0.));
#1523=DIRECTION('center_axis',(0.,0.,-1.));
#1524=DIRECTION('ref_axis',(0.,1.,0.));
#1525=DIRECTION('center_axis',(0.,0.,-1.));
#1526=DIRECTION('ref_axis',(0.,1.,0.));
#1527=DIRECTION('center_axis',(1.,0.,0.));
#1528=DIRECTION('ref_axis',(0.,1.,0.));
#1529=DIRECTION('',(0.,1.,0.));
#1530=DIRECTION('',(0.,0.,1.));
#1531=DIRECTION('',(0.,1.,0.));
#1532=DIRECTION('',(0.,0.,1.));
#1533=DIRECTION('center_axis',(0.,0.,1.));
#1534=DIRECTION('ref_axis',(-1.,0.,0.));
#1535=DIRECTION('center_axis',(0.,0.,-1.));
#1536=DIRECTION('ref_axis',(-1.,0.,0.));
#1537=DIRECTION('center_axis',(0.,0.,-1.));
#1538=DIRECTION('ref_axis',(-1.,0.,0.));
#1539=DIRECTION('',(0.,0.,1.));
#1540=DIRECTION('center_axis',(0.,1.,0.));
#1541=DIRECTION('ref_axis',(-1.,0.,0.));
#1542=DIRECTION('',(-1.,0.,0.));
#1543=DIRECTION('',(-1.,0.,0.));
#1544=DIRECTION('',(0.,0.,1.));
#1545=DIRECTION('center_axis',(0.,0.,1.));
#1546=DIRECTION('ref_axis',(0.,-1.,0.));
#1547=DIRECTION('center_axis',(0.,0.,-1.));
#1548=DIRECTION('ref_axis',(0.,-1.,0.));
#1549=DIRECTION('center_axis',(0.,0.,-1.));
#1550=DIRECTION('ref_axis',(0.,-1.,0.));
#1551=DIRECTION('',(0.,0.,1.));
#1552=DIRECTION('center_axis',(-1.,0.,0.));
#1553=DIRECTION('ref_axis',(0.,-1.,0.));
#1554=DIRECTION('',(0.,-1.,0.));
#1555=DIRECTION('',(0.,-1.,0.));
#1556=DIRECTION('',(0.,0.,1.));
#1557=DIRECTION('center_axis',(0.,0.,1.));
#1558=DIRECTION('ref_axis',(1.,0.,0.));
#1559=DIRECTION('center_axis',(0.,0.,-1.));
#1560=DIRECTION('ref_axis',(1.,0.,0.));
#1561=DIRECTION('center_axis',(0.,0.,-1.));
#1562=DIRECTION('ref_axis',(1.,0.,0.));
#1563=DIRECTION('',(0.,0.,1.));
#1564=DIRECTION('center_axis',(0.,-1.,0.));
#1565=DIRECTION('ref_axis',(1.,0.,0.));
#1566=DIRECTION('',(1.,0.,0.));
#1567=DIRECTION('',(1.,0.,0.));
#1568=DIRECTION('',(0.,0.,1.));
#1569=DIRECTION('center_axis',(0.,0.,1.));
#1570=DIRECTION('ref_axis',(0.,1.,0.));
#1571=DIRECTION('center_axis',(0.,0.,-1.));
#1572=DIRECTION('ref_axis',(0.,1.,0.));
#1573=DIRECTION('center_axis',(0.,0.,-1.));
#1574=DIRECTION('ref_axis',(0.,1.,0.));
#1575=DIRECTION('center_axis',(1.,0.,0.));
#1576=DIRECTION('ref_axis',(0.,1.,0.));
#1577=DIRECTION('',(0.,1.,0.));
#1578=DIRECTION('',(0.,0.,1.));
#1579=DIRECTION('',(0.,1.,0.));
#1580=DIRECTION('',(0.,0.,1.));
#1581=DIRECTION('center_axis',(0.,0.,1.));
#1582=DIRECTION('ref_axis',(-1.,0.,0.));
#1583=DIRECTION('center_axis',(0.,0.,-1.));
#1584=DIRECTION('ref_axis',(-1.,0.,0.));
#1585=DIRECTION('center_axis',(0.,0.,-1.));
#1586=DIRECTION('ref_axis',(-1.,0.,0.));
#1587=DIRECTION('',(0.,0.,1.));
#1588=DIRECTION('center_axis',(0.,1.,0.));
#1589=DIRECTION('ref_axis',(-1.,0.,0.));
#1590=DIRECTION('',(-1.,0.,0.));
#1591=DIRECTION('',(-1.,0.,0.));
#1592=DIRECTION('',(0.,0.,1.));
#1593=DIRECTION('center_axis',(0.,0.,1.));
#1594=DIRECTION('ref_axis',(0.,-1.,0.));
#1595=DIRECTION('center_axis',(0.,0.,-1.));
#1596=DIRECTION('ref_axis',(0.,-1.,0.));
#1597=DIRECTION('center_axis',(0.,0.,-1.));
#1598=DIRECTION('ref_axis',(0.,-1.,0.));
#1599=DIRECTION('',(0.,0.,1.));
#1600=DIRECTION('center_axis',(-1.,0.,0.));
#1601=DIRECTION('ref_axis',(0.,-1.,0.));
#1602=DIRECTION('',(0.,-1.,0.));
#1603=DIRECTION('',(0.,-1.,0.));
#1604=DIRECTION('',(0.,0.,1.));
#1605=DIRECTION('center_axis',(0.,0.,1.));
#1606=DIRECTION('ref_axis',(1.,0.,0.));
#1607=DIRECTION('center_axis',(0.,0.,-1.));
#1608=DIRECTION('ref_axis',(1.,0.,0.));
#1609=DIRECTION('center_axis',(0.,0.,-1.));
#1610=DIRECTION('ref_axis',(1.,0.,0.));
#1611=DIRECTION('',(0.,0.,1.));
#1612=DIRECTION('center_axis',(0.,-1.,0.));
#1613=DIRECTION('ref_axis',(1.,0.,0.));
#1614=DIRECTION('',(1.,0.,0.));
#1615=DIRECTION('',(1.,0.,0.));
#1616=DIRECTION('',(0.,0.,1.));
#1617=DIRECTION('center_axis',(0.,0.,1.));
#1618=DIRECTION('ref_axis',(0.,1.,0.));
#1619=DIRECTION('center_axis',(0.,0.,-1.));
#1620=DIRECTION('ref_axis',(0.,1.,0.));
#1621=DIRECTION('center_axis',(0.,0.,-1.));
#1622=DIRECTION('ref_axis',(0.,1.,0.));
#1623=DIRECTION('center_axis',(-1.,0.,0.));
#1624=DIRECTION('ref_axis',(0.,-1.,0.));
#1625=DIRECTION('',(0.,1.,0.));
#1626=DIRECTION('',(0.,0.,1.));
#1627=DIRECTION('',(0.,-1.,0.));
#1628=DIRECTION('',(0.,0.,1.));
#1629=DIRECTION('center_axis',(0.,1.,0.));
#1630=DIRECTION('ref_axis',(-1.,0.,0.));
#1631=DIRECTION('',(1.,0.,0.));
#1632=DIRECTION('',(-1.,0.,0.));
#1633=DIRECTION('',(0.,0.,1.));
#1634=DIRECTION('center_axis',(1.,0.,0.));
#1635=DIRECTION('ref_axis',(0.,1.,0.));
#1636=DIRECTION('',(0.,1.,0.));
#1637=DIRECTION('',(0.,1.,0.));
#1638=DIRECTION('',(0.,0.,1.));
#1639=DIRECTION('center_axis',(0.,-1.,0.));
#1640=DIRECTION('ref_axis',(1.,0.,0.));
#1641=DIRECTION('',(1.,0.,0.));
#1642=DIRECTION('',(1.,0.,0.));
#1643=DIRECTION('center_axis',(0.,0.,1.));
#1644=DIRECTION('ref_axis',(1.,0.,0.));
#1645=DIRECTION('center_axis',(0.,0.,1.));
#1646=DIRECTION('ref_axis',(1.,0.,0.));
#1647=DIRECTION('center_axis',(0.,1.,0.));
#1648=DIRECTION('ref_axis',(-1.,0.,0.));
#1649=DIRECTION('',(-1.,0.,0.));
#1650=DIRECTION('',(0.,0.,1.));
#1651=DIRECTION('',(-1.,0.,0.));
#1652=DIRECTION('',(0.,0.,1.));
#1653=DIRECTION('center_axis',(-1.,0.,0.));
#1654=DIRECTION('ref_axis',(0.,-1.,0.));
#1655=DIRECTION('',(0.,-1.,0.));
#1656=DIRECTION('',(0.,-1.,0.));
#1657=DIRECTION('',(0.,0.,1.));
#1658=DIRECTION('center_axis',(0.,-1.,0.));
#1659=DIRECTION('ref_axis',(1.,0.,0.));
#1660=DIRECTION('',(1.,0.,0.));
#1661=DIRECTION('',(1.,0.,0.));
#1662=DIRECTION('',(0.,0.,1.));
#1663=DIRECTION('center_axis',(1.,0.,0.));
#1664=DIRECTION('ref_axis',(0.,1.,0.));
#1665=DIRECTION('',(0.,1.,0.));
#1666=DIRECTION('',(0.,1.,0.));
#1667=DIRECTION('center_axis',(0.,0.,1.));
#1668=DIRECTION('ref_axis',(1.,0.,0.));
#1669=DIRECTION('center_axis',(0.,0.,-1.));
#1670=DIRECTION('ref_axis',(1.,0.,0.));
#1671=DIRECTION('',(0.,0.,-1.));
#1672=DIRECTION('center_axis',(0.,0.,-1.));
#1673=DIRECTION('ref_axis',(1.,0.,0.));
#1674=DIRECTION('center_axis',(0.,0.,1.));
#1675=DIRECTION('ref_axis',(1.,0.,0.));
#1676=DIRECTION('center_axis',(0.,0.,-1.));
#1677=DIRECTION('ref_axis',(1.,0.,0.));
#1678=DIRECTION('',(0.,0.,-1.));
#1679=DIRECTION('center_axis',(0.,0.,-1.));
#1680=DIRECTION('ref_axis',(1.,0.,0.));
#1681=DIRECTION('center_axis',(0.,0.,1.));
#1682=DIRECTION('ref_axis',(1.,0.,0.));
#1683=DIRECTION('center_axis',(0.,0.,-1.));
#1684=DIRECTION('ref_axis',(1.,0.,0.));
#1685=DIRECTION('',(0.,0.,-1.));
#1686=DIRECTION('center_axis',(0.,0.,-1.));
#1687=DIRECTION('ref_axis',(1.,0.,0.));
#1688=DIRECTION('center_axis',(0.,0.,1.));
#1689=DIRECTION('ref_axis',(1.,0.,0.));
#1690=DIRECTION('center_axis',(0.,0.,-1.));
#1691=DIRECTION('ref_axis',(1.,0.,0.));
#1692=DIRECTION('',(0.,0.,-1.));
#1693=DIRECTION('center_axis',(0.,0.,-1.));
#1694=DIRECTION('ref_axis',(1.,0.,0.));
#1695=DIRECTION('center_axis',(0.,1.,0.));
#1696=DIRECTION('ref_axis',(-1.,0.,0.));
#1697=DIRECTION('',(-1.,0.,0.));
#1698=DIRECTION('',(0.,0.,1.));
#1699=DIRECTION('',(-1.,0.,0.));
#1700=DIRECTION('',(0.,0.,1.));
#1701=DIRECTION('center_axis',(1.,0.,0.));
#1702=DIRECTION('ref_axis',(0.,1.,0.));
#1703=DIRECTION('',(0.,1.,0.));
#1704=DIRECTION('',(0.,1.,0.));
#1705=DIRECTION('',(0.,0.,1.));
#1706=DIRECTION('center_axis',(0.,-1.,0.));
#1707=DIRECTION('ref_axis',(1.,0.,0.));
#1708=DIRECTION('',(1.,0.,0.));
#1709=DIRECTION('',(1.,0.,0.));
#1710=DIRECTION('',(0.,0.,1.));
#1711=DIRECTION('center_axis',(-1.,0.,0.));
#1712=DIRECTION('ref_axis',(0.,-1.,0.));
#1713=DIRECTION('',(0.,-1.,0.));
#1714=DIRECTION('',(0.,-1.,0.));
#1715=DIRECTION('center_axis',(0.,0.,1.));
#1716=DIRECTION('ref_axis',(1.,0.,0.));
#1717=DIRECTION('center_axis',(0.,0.,1.));
#1718=DIRECTION('ref_axis',(1.,0.,0.));
#1719=CARTESIAN_POINT('',(0.,0.,0.));
#1720=CARTESIAN_POINT('Origin',(0.,9.7,9.75));
#1721=CARTESIAN_POINT('',(0.,19.4,6.5));
#1722=CARTESIAN_POINT('',(0.,19.4,13.));
#1723=CARTESIAN_POINT('',(0.,19.4,0.));
#1724=CARTESIAN_POINT('',(0.,19.55,13.));
#1725=CARTESIAN_POINT('',(0.,9.7,13.));
#1726=CARTESIAN_POINT('',(0.,19.55,6.5));
#1727=CARTESIAN_POINT('',(0.,19.55,13.));
#1728=CARTESIAN_POINT('',(0.,19.55,6.5));
#1729=CARTESIAN_POINT('Origin',(0.,9.7,9.75));
#1730=CARTESIAN_POINT('',(0.,0.,6.5));
#1731=CARTESIAN_POINT('',(0.,0.,13.));
#1732=CARTESIAN_POINT('',(0.,0.,0.));
#1733=CARTESIAN_POINT('',(0.,-0.150000000000001,6.5));
#1734=CARTESIAN_POINT('',(0.,19.55,6.5));
#1735=CARTESIAN_POINT('',(0.,-0.150000000000001,13.));
#1736=CARTESIAN_POINT('',(0.,-0.150000000000001,6.5));
#1737=CARTESIAN_POINT('',(0.,9.7,13.));
#1738=CARTESIAN_POINT('Origin',(-10.,-0.150000000000001,6.5));
#1739=CARTESIAN_POINT('',(-10.,-0.150000000000001,6.5));
#1740=CARTESIAN_POINT('',(-10.,19.55,6.5));
#1741=CARTESIAN_POINT('',(-10.,14.625,6.5));
#1742=CARTESIAN_POINT('',(-10.,-0.150000000000001,6.5));
#1743=CARTESIAN_POINT('',(0.,-0.0750000000000006,6.5));
#1744=CARTESIAN_POINT('',(-10.,19.55,6.5));
#1745=CARTESIAN_POINT('Origin',(-10.,-0.15,13.));
#1746=CARTESIAN_POINT('',(-10.,-0.15,13.));
#1747=CARTESIAN_POINT('',(-10.,-0.150000000000001,6.5));
#1748=CARTESIAN_POINT('',(9.45,-0.15,13.));
#1749=CARTESIAN_POINT('Origin',(-10.,19.55,6.5));
#1750=CARTESIAN_POINT('',(-10.,19.55,13.));
#1751=CARTESIAN_POINT('',(-10.,19.55,3.25));
#1752=CARTESIAN_POINT('',(9.45,19.55,13.));
#1753=CARTESIAN_POINT('Origin',(28.9,9.7,13.));
#1754=CARTESIAN_POINT('',(57.8,19.4,13.));
#1755=CARTESIAN_POINT('',(57.8,19.4,13.));
#1756=CARTESIAN_POINT('',(57.8,0.,13.));
#1757=CARTESIAN_POINT('',(57.8,0.,13.));
#1758=CARTESIAN_POINT('',(0.,0.,13.));
#1759=CARTESIAN_POINT('',(-10.,-10.,13.));
#1760=CARTESIAN_POINT('',(-10.,29.4,13.));
#1761=CARTESIAN_POINT('',(67.8,-10.,13.));
#1762=CARTESIAN_POINT('',(-10.,-10.,13.));
#1763=CARTESIAN_POINT('',(67.8,29.4,13.));
#1764=CARTESIAN_POINT('',(67.8,-10.,13.));
#1765=CARTESIAN_POINT('',(-10.,29.4,13.));
#1766=CARTESIAN_POINT('',(67.8,29.4,13.));
#1767=CARTESIAN_POINT('',(-10.,29.4,13.));
#1768=CARTESIAN_POINT('',(-6.45,24.4,13.));
#1769=CARTESIAN_POINT('Origin',(-5.,24.4,13.));
#1770=CARTESIAN_POINT('',(-6.45,-5.,13.));
#1771=CARTESIAN_POINT('Origin',(-5.,-5.,13.));
#1772=CARTESIAN_POINT('',(61.35,24.4,13.));
#1773=CARTESIAN_POINT('Origin',(62.8,24.4,13.));
#1774=CARTESIAN_POINT('',(61.35,-5.,13.));
#1775=CARTESIAN_POINT('Origin',(62.8,-5.,13.));
#1776=CARTESIAN_POINT('Origin',(57.8,0.,0.));
#1777=CARTESIAN_POINT('',(0.,0.,3.));
#1778=CARTESIAN_POINT('',(57.8,0.,3.));
#1779=CARTESIAN_POINT('',(0.,0.,3.));
#1780=CARTESIAN_POINT('',(0.,0.,0.));
#1781=CARTESIAN_POINT('',(57.8,0.,0.));
#1782=CARTESIAN_POINT('Origin',(0.,0.,0.));
#1783=CARTESIAN_POINT('',(0.,19.4,3.));
#1784=CARTESIAN_POINT('',(0.,19.4,3.));
#1785=CARTESIAN_POINT('',(0.,19.4,0.));
#1786=CARTESIAN_POINT('Origin',(57.8,19.4,0.));
#1787=CARTESIAN_POINT('',(57.8,19.4,3.));
#1788=CARTESIAN_POINT('',(57.8,0.,3.));
#1789=CARTESIAN_POINT('',(57.8,19.4,0.));
#1790=CARTESIAN_POINT('Origin',(0.,19.4,0.));
#1791=CARTESIAN_POINT('',(57.8,19.4,3.));
#1792=CARTESIAN_POINT('Origin',(-5.,24.4,0.));
#1793=CARTESIAN_POINT('',(-6.45,24.4,0.));
#1794=CARTESIAN_POINT('',(-6.45,24.4,0.));
#1795=CARTESIAN_POINT('Origin',(-5.,24.4,0.));
#1796=CARTESIAN_POINT('Origin',(-5.,-5.,0.));
#1797=CARTESIAN_POINT('',(-6.45,-5.,0.));
#1798=CARTESIAN_POINT('',(-6.45,-5.,0.));
#1799=CARTESIAN_POINT('Origin',(-5.,-5.,0.));
#1800=CARTESIAN_POINT('Origin',(62.8,24.4,0.));
#1801=CARTESIAN_POINT('',(61.35,24.4,0.));
#1802=CARTESIAN_POINT('',(61.35,24.4,0.));
#1803=CARTESIAN_POINT('Origin',(62.8,24.4,0.));
#1804=CARTESIAN_POINT('Origin',(62.8,-5.,0.));
#1805=CARTESIAN_POINT('',(61.35,-5.,0.));
#1806=CARTESIAN_POINT('',(61.35,-5.,0.));
#1807=CARTESIAN_POINT('Origin',(62.8,-5.,0.));
#1808=CARTESIAN_POINT('Origin',(67.8,29.4,0.));
#1809=CARTESIAN_POINT('',(67.8,29.4,0.));
#1810=CARTESIAN_POINT('',(-10.,29.4,0.));
#1811=CARTESIAN_POINT('',(67.8,29.4,0.));
#1812=CARTESIAN_POINT('',(-10.,29.4,0.));
#1813=CARTESIAN_POINT('',(67.8,29.4,0.));
#1814=CARTESIAN_POINT('Origin',(67.8,-10.,0.));
#1815=CARTESIAN_POINT('',(67.8,-10.,0.));
#1816=CARTESIAN_POINT('',(67.8,-10.,0.));
#1817=CARTESIAN_POINT('',(67.8,-10.,0.));
#1818=CARTESIAN_POINT('Origin',(-10.,-10.,0.));
#1819=CARTESIAN_POINT('',(-10.,-10.,0.));
#1820=CARTESIAN_POINT('',(-10.,-10.,0.));
#1821=CARTESIAN_POINT('',(-10.,-10.,0.));
#1822=CARTESIAN_POINT('Origin',(-10.,29.4,0.));
#1823=CARTESIAN_POINT('',(-10.,29.4,0.));
#1824=CARTESIAN_POINT('Origin',(28.9,9.7,3.));
#1825=CARTESIAN_POINT('Origin',(28.9,9.7,0.));
#1826=CARTESIAN_POINT('Origin',(21.9190530867789,3.22254764702683,13.));
#1827=CARTESIAN_POINT('',(21.9190530867789,3.22254764702683,13.));
#1828=CARTESIAN_POINT('',(21.9190530867789,16.2225476470268,13.));
#1829=CARTESIAN_POINT('',(21.9190530867789,16.2225476470268,13.));
#1830=CARTESIAN_POINT('',(21.9190530867789,16.2225476470268,16.));
#1831=CARTESIAN_POINT('',(21.9190530867789,16.2225476470268,13.));
#1832=CARTESIAN_POINT('',(21.9190530867789,3.22254764702683,16.));
#1833=CARTESIAN_POINT('',(21.9190530867789,16.2225476470268,16.));
#1834=CARTESIAN_POINT('',(21.9190530867789,3.22254764702683,13.));
#1835=CARTESIAN_POINT('Origin',(22.4190530867789,3.22254764702683,13.));
#1836=CARTESIAN_POINT('',(22.4190530867789,2.72254764702684,13.));
#1837=CARTESIAN_POINT('Origin',(22.4190530867789,3.22254764702683,13.));
#1838=CARTESIAN_POINT('',(22.4190530867789,2.72254764702684,16.));
#1839=CARTESIAN_POINT('Origin',(22.4190530867789,3.22254764702683,16.));
#1840=CARTESIAN_POINT('',(22.4190530867789,2.72254764702684,13.));
#1841=CARTESIAN_POINT('Origin',(35.4190530867789,2.72254764702684,13.));
#1842=CARTESIAN_POINT('',(35.4190530867789,2.72254764702684,13.));
#1843=CARTESIAN_POINT('',(22.4190530867789,2.72254764702684,13.));
#1844=CARTESIAN_POINT('',(35.4190530867789,2.72254764702684,16.));
#1845=CARTESIAN_POINT('',(22.4190530867789,2.72254764702684,16.));
#1846=CARTESIAN_POINT('',(35.4190530867789,2.72254764702684,13.));
#1847=CARTESIAN_POINT('Origin',(35.4190530867789,3.22254764702683,13.));
#1848=CARTESIAN_POINT('',(35.9190530867789,3.22254764702683,13.));
#1849=CARTESIAN_POINT('Origin',(35.4190530867789,3.22254764702683,13.));
#1850=CARTESIAN_POINT('',(35.9190530867789,3.22254764702683,16.));
#1851=CARTESIAN_POINT('Origin',(35.4190530867789,3.22254764702683,16.));
#1852=CARTESIAN_POINT('',(35.9190530867789,3.22254764702683,13.));
#1853=CARTESIAN_POINT('Origin',(35.9190530867789,16.2225476470268,13.));
#1854=CARTESIAN_POINT('',(35.9190530867789,16.2225476470268,13.));
#1855=CARTESIAN_POINT('',(35.9190530867789,16.2225476470268,13.));
#1856=CARTESIAN_POINT('',(35.9190530867789,16.2225476470268,16.));
#1857=CARTESIAN_POINT('',(35.9190530867789,16.2225476470268,16.));
#1858=CARTESIAN_POINT('',(35.9190530867789,16.2225476470268,13.));
#1859=CARTESIAN_POINT('Origin',(35.4190530867789,16.2225476470268,13.));
#1860=CARTESIAN_POINT('',(35.4190530867789,16.7225476470268,13.));
#1861=CARTESIAN_POINT('Origin',(35.4190530867789,16.2225476470268,13.));
#1862=CARTESIAN_POINT('',(35.4190530867789,16.7225476470268,16.));
#1863=CARTESIAN_POINT('Origin',(35.4190530867789,16.2225476470268,16.));
#1864=CARTESIAN_POINT('',(35.4190530867789,16.7225476470268,13.));
#1865=CARTESIAN_POINT('Origin',(22.4190530867789,16.7225476470268,13.));
#1866=CARTESIAN_POINT('',(22.4190530867789,16.7225476470268,13.));
#1867=CARTESIAN_POINT('',(22.4190530867789,16.7225476470268,13.));
#1868=CARTESIAN_POINT('',(22.4190530867789,16.7225476470268,16.));
#1869=CARTESIAN_POINT('',(22.4190530867789,16.7225476470268,16.));
#1870=CARTESIAN_POINT('',(22.4190530867789,16.7225476470268,13.));
#1871=CARTESIAN_POINT('Origin',(22.4190530867789,16.2225476470268,13.));
#1872=CARTESIAN_POINT('Origin',(22.4190530867789,16.2225476470268,13.));
#1873=CARTESIAN_POINT('Origin',(22.4190530867789,16.2225476470268,16.));
#1874=CARTESIAN_POINT('Origin',(2.86905308677892,3.22254764702683,13.));
#1875=CARTESIAN_POINT('',(2.86905308677892,3.22254764702683,13.));
#1876=CARTESIAN_POINT('',(2.86905308677892,16.2225476470268,13.));
#1877=CARTESIAN_POINT('',(2.86905308677892,16.2225476470268,13.));
#1878=CARTESIAN_POINT('',(2.86905308677892,16.2225476470268,16.));
#1879=CARTESIAN_POINT('',(2.86905308677892,16.2225476470268,13.));
#1880=CARTESIAN_POINT('',(2.86905308677892,3.22254764702683,16.));
#1881=CARTESIAN_POINT('',(2.86905308677892,16.2225476470268,16.));
#1882=CARTESIAN_POINT('',(2.86905308677892,3.22254764702683,13.));
#1883=CARTESIAN_POINT('Origin',(3.36905308677892,3.22254764702683,13.));
#1884=CARTESIAN_POINT('',(3.36905308677892,2.72254764702683,13.));
#1885=CARTESIAN_POINT('Origin',(3.36905308677892,3.22254764702683,13.));
#1886=CARTESIAN_POINT('',(3.36905308677892,2.72254764702683,16.));
#1887=CARTESIAN_POINT('Origin',(3.36905308677892,3.22254764702683,16.));
#1888=CARTESIAN_POINT('',(3.36905308677892,2.72254764702683,13.));
#1889=CARTESIAN_POINT('Origin',(16.3690530867789,2.72254764702684,13.));
#1890=CARTESIAN_POINT('',(16.3690530867789,2.72254764702684,13.));
#1891=CARTESIAN_POINT('',(3.36905308677892,2.72254764702684,13.));
#1892=CARTESIAN_POINT('',(16.3690530867789,2.72254764702684,16.));
#1893=CARTESIAN_POINT('',(3.36905308677892,2.72254764702684,16.));
#1894=CARTESIAN_POINT('',(16.3690530867789,2.72254764702684,13.));
#1895=CARTESIAN_POINT('Origin',(16.3690530867789,3.22254764702683,13.));
#1896=CARTESIAN_POINT('',(16.8690530867789,3.22254764702683,13.));
#1897=CARTESIAN_POINT('Origin',(16.3690530867789,3.22254764702683,13.));
#1898=CARTESIAN_POINT('',(16.8690530867789,3.22254764702683,16.));
#1899=CARTESIAN_POINT('Origin',(16.3690530867789,3.22254764702683,16.));
#1900=CARTESIAN_POINT('',(16.8690530867789,3.22254764702683,13.));
#1901=CARTESIAN_POINT('Origin',(16.8690530867789,16.2225476470268,13.));
#1902=CARTESIAN_POINT('',(16.8690530867789,16.2225476470268,13.));
#1903=CARTESIAN_POINT('',(16.8690530867789,16.2225476470268,13.));
#1904=CARTESIAN_POINT('',(16.8690530867789,16.2225476470268,16.));
#1905=CARTESIAN_POINT('',(16.8690530867789,16.2225476470268,16.));
#1906=CARTESIAN_POINT('',(16.8690530867789,16.2225476470268,13.));
#1907=CARTESIAN_POINT('Origin',(16.3690530867789,16.2225476470268,13.));
#1908=CARTESIAN_POINT('',(16.3690530867789,16.7225476470268,13.));
#1909=CARTESIAN_POINT('Origin',(16.3690530867789,16.2225476470268,13.));
#1910=CARTESIAN_POINT('',(16.3690530867789,16.7225476470268,16.));
#1911=CARTESIAN_POINT('Origin',(16.3690530867789,16.2225476470268,16.));
#1912=CARTESIAN_POINT('',(16.3690530867789,16.7225476470268,13.));
#1913=CARTESIAN_POINT('Origin',(3.36905308677892,16.7225476470268,13.));
#1914=CARTESIAN_POINT('',(3.36905308677892,16.7225476470268,13.));
#1915=CARTESIAN_POINT('',(3.36905308677892,16.7225476470268,13.));
#1916=CARTESIAN_POINT('',(3.36905308677892,16.7225476470268,16.));
#1917=CARTESIAN_POINT('',(3.36905308677892,16.7225476470268,16.));
#1918=CARTESIAN_POINT('',(3.36905308677892,16.7225476470268,13.));
#1919=CARTESIAN_POINT('Origin',(3.36905308677892,16.2225476470268,13.));
#1920=CARTESIAN_POINT('Origin',(3.36905308677892,16.2225476470268,13.));
#1921=CARTESIAN_POINT('Origin',(3.36905308677892,16.2225476470268,16.));
#1922=CARTESIAN_POINT('Origin',(40.9690530867789,3.22254764702683,13.));
#1923=CARTESIAN_POINT('',(40.9690530867789,3.22254764702683,13.));
#1924=CARTESIAN_POINT('',(40.9690530867789,16.2225476470268,13.));
#1925=CARTESIAN_POINT('',(40.9690530867789,16.2225476470268,13.));
#1926=CARTESIAN_POINT('',(40.9690530867789,16.2225476470268,16.));
#1927=CARTESIAN_POINT('',(40.9690530867789,16.2225476470268,13.));
#1928=CARTESIAN_POINT('',(40.9690530867789,3.22254764702683,16.));
#1929=CARTESIAN_POINT('',(40.9690530867789,16.2225476470268,16.));
#1930=CARTESIAN_POINT('',(40.9690530867789,3.22254764702683,13.));
#1931=CARTESIAN_POINT('Origin',(41.4690530867789,3.22254764702683,13.));
#1932=CARTESIAN_POINT('',(41.4690530867789,2.72254764702683,13.));
#1933=CARTESIAN_POINT('Origin',(41.4690530867789,3.22254764702683,13.));
#1934=CARTESIAN_POINT('',(41.4690530867789,2.72254764702683,16.));
#1935=CARTESIAN_POINT('Origin',(41.4690530867789,3.22254764702683,16.));
#1936=CARTESIAN_POINT('',(41.4690530867789,2.72254764702683,13.));
#1937=CARTESIAN_POINT('Origin',(54.4690530867789,2.72254764702684,13.));
#1938=CARTESIAN_POINT('',(54.4690530867789,2.72254764702684,13.));
#1939=CARTESIAN_POINT('',(41.4690530867789,2.72254764702684,13.));
#1940=CARTESIAN_POINT('',(54.4690530867789,2.72254764702684,16.));
#1941=CARTESIAN_POINT('',(41.4690530867789,2.72254764702684,16.));
#1942=CARTESIAN_POINT('',(54.4690530867789,2.72254764702684,13.));
#1943=CARTESIAN_POINT('Origin',(54.4690530867789,3.22254764702683,13.));
#1944=CARTESIAN_POINT('',(54.9690530867789,3.22254764702683,13.));
#1945=CARTESIAN_POINT('Origin',(54.4690530867789,3.22254764702683,13.));
#1946=CARTESIAN_POINT('',(54.9690530867789,3.22254764702683,16.));
#1947=CARTESIAN_POINT('Origin',(54.4690530867789,3.22254764702683,16.));
#1948=CARTESIAN_POINT('',(54.9690530867789,3.22254764702683,13.));
#1949=CARTESIAN_POINT('Origin',(54.9690530867789,16.2225476470268,13.));
#1950=CARTESIAN_POINT('',(54.9690530867789,16.2225476470268,13.));
#1951=CARTESIAN_POINT('',(54.9690530867789,16.2225476470268,13.));
#1952=CARTESIAN_POINT('',(54.9690530867789,16.2225476470268,16.));
#1953=CARTESIAN_POINT('',(54.9690530867789,16.2225476470268,16.));
#1954=CARTESIAN_POINT('',(54.9690530867789,16.2225476470268,13.));
#1955=CARTESIAN_POINT('Origin',(54.4690530867789,16.2225476470268,13.));
#1956=CARTESIAN_POINT('',(54.4690530867789,16.7225476470268,13.));
#1957=CARTESIAN_POINT('Origin',(54.4690530867789,16.2225476470268,13.));
#1958=CARTESIAN_POINT('',(54.4690530867789,16.7225476470268,16.));
#1959=CARTESIAN_POINT('Origin',(54.4690530867789,16.2225476470268,16.));
#1960=CARTESIAN_POINT('',(54.4690530867789,16.7225476470268,13.));
#1961=CARTESIAN_POINT('Origin',(41.4690530867789,16.7225476470268,13.));
#1962=CARTESIAN_POINT('',(41.4690530867789,16.7225476470268,13.));
#1963=CARTESIAN_POINT('',(41.4690530867789,16.7225476470268,13.));
#1964=CARTESIAN_POINT('',(41.4690530867789,16.7225476470268,16.));
#1965=CARTESIAN_POINT('',(41.4690530867789,16.7225476470268,16.));
#1966=CARTESIAN_POINT('',(41.4690530867789,16.7225476470268,13.));
#1967=CARTESIAN_POINT('Origin',(41.4690530867789,16.2225476470268,13.));
#1968=CARTESIAN_POINT('Origin',(41.4690530867789,16.2225476470268,13.));
#1969=CARTESIAN_POINT('Origin',(41.4690530867789,16.2225476470268,16.));
#1970=CARTESIAN_POINT('Origin',(0.344053086778922,19.2475476470268,13.));
#1971=CARTESIAN_POINT('',(0.344053086778922,0.197547647026832,13.));
#1972=CARTESIAN_POINT('',(0.344053086778922,19.2475476470268,13.));
#1973=CARTESIAN_POINT('',(0.344053086778922,0.197547647026832,13.));
#1974=CARTESIAN_POINT('',(0.344053086778926,0.197547647026832,16.));
#1975=CARTESIAN_POINT('',(0.344053086778922,0.197547647026832,13.));
#1976=CARTESIAN_POINT('',(0.344053086778926,19.2475476470268,16.));
#1977=CARTESIAN_POINT('',(0.344053086778922,0.197547647026832,16.));
#1978=CARTESIAN_POINT('',(0.344053086778922,19.2475476470268,13.));
#1979=CARTESIAN_POINT('Origin',(57.4940530867789,19.2475476470268,13.));
#1980=CARTESIAN_POINT('',(57.4940530867789,19.2475476470268,13.));
#1981=CARTESIAN_POINT('',(0.344053086778922,19.2475476470268,13.));
#1982=CARTESIAN_POINT('',(57.4940530867789,19.2475476470268,16.));
#1983=CARTESIAN_POINT('',(0.344053086778922,19.2475476470268,16.));
#1984=CARTESIAN_POINT('',(57.4940530867789,19.2475476470268,13.));
#1985=CARTESIAN_POINT('Origin',(57.4940530867789,0.197547647026832,13.));
#1986=CARTESIAN_POINT('',(57.4940530867789,0.197547647026832,13.));
#1987=CARTESIAN_POINT('',(57.4940530867789,0.197547647026832,13.));
#1988=CARTESIAN_POINT('',(57.4940530867789,0.197547647026832,16.));
#1989=CARTESIAN_POINT('',(57.4940530867789,0.197547647026832,16.));
#1990=CARTESIAN_POINT('',(57.4940530867789,0.197547647026832,13.));
#1991=CARTESIAN_POINT('Origin',(0.344053086778922,0.197547647026832,13.));
#1992=CARTESIAN_POINT('',(0.344053086778922,0.197547647026832,13.));
#1993=CARTESIAN_POINT('',(0.344053086778922,0.197547647026832,16.));
#1994=CARTESIAN_POINT('Origin',(28.9190530867789,9.72254764702683,16.));
#1995=CARTESIAN_POINT('Origin',(28.9190530867789,9.72254764702683,13.));
#1996=CARTESIAN_POINT('Origin',(57.8,0.,13.));
#1997=CARTESIAN_POINT('',(57.8,0.,13.));
#1998=CARTESIAN_POINT('',(0.,0.,13.));
#1999=CARTESIAN_POINT('',(0.,0.,13.));
#2000=CARTESIAN_POINT('',(0.,0.,16.));
#2001=CARTESIAN_POINT('',(0.,0.,13.));
#2002=CARTESIAN_POINT('',(57.8,0.,16.));
#2003=CARTESIAN_POINT('',(0.,0.,16.));
#2004=CARTESIAN_POINT('',(57.8,0.,13.));
#2005=CARTESIAN_POINT('Origin',(57.8,19.4,13.));
#2006=CARTESIAN_POINT('',(57.8,19.4,13.));
#2007=CARTESIAN_POINT('',(57.8,0.,13.));
#2008=CARTESIAN_POINT('',(57.8,19.4,16.));
#2009=CARTESIAN_POINT('',(57.8,0.,16.));
#2010=CARTESIAN_POINT('',(57.8,19.4,13.));
#2011=CARTESIAN_POINT('Origin',(0.,19.4,13.));
#2012=CARTESIAN_POINT('',(0.,19.4,13.));
#2013=CARTESIAN_POINT('',(57.8,19.4,13.));
#2014=CARTESIAN_POINT('',(0.,19.4,16.));
#2015=CARTESIAN_POINT('',(57.8,19.4,16.));
#2016=CARTESIAN_POINT('',(0.,19.4,13.));
#2017=CARTESIAN_POINT('Origin',(0.,0.,13.));
#2018=CARTESIAN_POINT('',(0.,19.4,13.));
#2019=CARTESIAN_POINT('',(0.,19.4,16.));
#2020=CARTESIAN_POINT('Origin',(-5.,24.4,13.));
#2021=CARTESIAN_POINT('',(-6.45,24.4,16.));
#2022=CARTESIAN_POINT('Origin',(-5.,24.4,16.));
#2023=CARTESIAN_POINT('',(-6.45,24.4,13.));
#2024=CARTESIAN_POINT('',(-6.45,24.4,13.));
#2025=CARTESIAN_POINT('Origin',(-5.,24.4,13.));
#2026=CARTESIAN_POINT('Origin',(-5.,-5.,13.));
#2027=CARTESIAN_POINT('',(-6.45,-5.,16.));
#2028=CARTESIAN_POINT('Origin',(-5.,-5.,16.));
#2029=CARTESIAN_POINT('',(-6.45,-5.,13.));
#2030=CARTESIAN_POINT('',(-6.45,-5.,13.));
#2031=CARTESIAN_POINT('Origin',(-5.,-5.,13.));
#2032=CARTESIAN_POINT('Origin',(62.8,24.4,13.));
#2033=CARTESIAN_POINT('',(61.35,24.4,16.));
#2034=CARTESIAN_POINT('Origin',(62.8,24.4,16.));
#2035=CARTESIAN_POINT('',(61.35,24.4,13.));
#2036=CARTESIAN_POINT('',(61.35,24.4,13.));
#2037=CARTESIAN_POINT('Origin',(62.8,24.4,13.));
#2038=CARTESIAN_POINT('Origin',(62.8,-5.,13.));
#2039=CARTESIAN_POINT('',(61.35,-5.,16.));
#2040=CARTESIAN_POINT('Origin',(62.8,-5.,16.));
#2041=CARTESIAN_POINT('',(61.35,-5.,13.));
#2042=CARTESIAN_POINT('',(61.35,-5.,13.));
#2043=CARTESIAN_POINT('Origin',(62.8,-5.,13.));
#2044=CARTESIAN_POINT('Origin',(67.8,29.4,13.));
#2045=CARTESIAN_POINT('',(67.8,29.4,13.));
#2046=CARTESIAN_POINT('',(-10.,29.4,13.));
#2047=CARTESIAN_POINT('',(67.8,29.4,13.));
#2048=CARTESIAN_POINT('',(-10.,29.4,16.));
#2049=CARTESIAN_POINT('',(-10.,29.4,13.));
#2050=CARTESIAN_POINT('',(67.8,29.4,16.));
#2051=CARTESIAN_POINT('',(67.8,29.4,16.));
#2052=CARTESIAN_POINT('',(67.8,29.4,13.));
#2053=CARTESIAN_POINT('Origin',(67.8,-10.,13.));
#2054=CARTESIAN_POINT('',(67.8,-10.,13.));
#2055=CARTESIAN_POINT('',(67.8,-10.,13.));
#2056=CARTESIAN_POINT('',(67.8,-10.,16.));
#2057=CARTESIAN_POINT('',(67.8,-10.,16.));
#2058=CARTESIAN_POINT('',(67.8,-10.,13.));
#2059=CARTESIAN_POINT('Origin',(-10.,-10.,13.));
#2060=CARTESIAN_POINT('',(-10.,-10.,13.));
#2061=CARTESIAN_POINT('',(-10.,-10.,13.));
#2062=CARTESIAN_POINT('',(-10.,-10.,16.));
#2063=CARTESIAN_POINT('',(-10.,-10.,16.));
#2064=CARTESIAN_POINT('',(-10.,-10.,13.));
#2065=CARTESIAN_POINT('Origin',(-10.,29.4,13.));
#2066=CARTESIAN_POINT('',(-10.,29.4,13.));
#2067=CARTESIAN_POINT('',(-10.,29.4,16.));
#2068=CARTESIAN_POINT('Origin',(28.9,9.7,16.));
#2069=CARTESIAN_POINT('Origin',(28.9,9.7,13.));
#2070=UNCERTAINTY_MEASURE_WITH_UNIT(LENGTH_MEASURE(0.01),#2074,
'DISTANCE_ACCURACY_VALUE',
'Maximum model space distance between geometric entities at asserted c
onnectivities');
#2071=UNCERTAINTY_MEASURE_WITH_UNIT(LENGTH_MEASURE(0.01),#2074,
'DISTANCE_ACCURACY_VALUE',
'Maximum model space distance between geometric entities at asserted c
onnectivities');
#2072=(
GEOMETRIC_REPRESENTATION_CONTEXT(3)
GLOBAL_UNCERTAINTY_ASSIGNED_CONTEXT((#2070))
GLOBAL_UNIT_ASSIGNED_CONTEXT((#2074,#2076,#2077))
REPRESENTATION_CONTEXT('','3D')
);
#2073=(
GEOMETRIC_REPRESENTATION_CONTEXT(3)
GLOBAL_UNCERTAINTY_ASSIGNED_CONTEXT((#2071))
GLOBAL_UNIT_ASSIGNED_CONTEXT((#2074,#2076,#2077))
REPRESENTATION_CONTEXT('','3D')
);
#2074=(
LENGTH_UNIT()
NAMED_UNIT(*)
SI_UNIT(.MILLI.,.METRE.)
);
#2075=(
LENGTH_UNIT()
NAMED_UNIT(*)
SI_UNIT($,.METRE.)
);
#2076=(
NAMED_UNIT(*)
PLANE_ANGLE_UNIT()
SI_UNIT($,.RADIAN.)
);
#2077=(
NAMED_UNIT(*)
SI_UNIT($,.STERADIAN.)
SOLID_ANGLE_UNIT()
);
#2078=SHAPE_DEFINITION_REPRESENTATION(#2079,#2080);
#2079=PRODUCT_DEFINITION_SHAPE('',$,#2082);
#2080=SHAPE_REPRESENTATION('',(#1272),#2072);
#2081=PRODUCT_DEFINITION_CONTEXT('part definition',#2086,'design');
#2082=PRODUCT_DEFINITION('hackpad','hackpad v2',#2083,#2081);
#2083=PRODUCT_DEFINITION_FORMATION('',$,#2088);
#2084=PRODUCT_RELATED_PRODUCT_CATEGORY('hackpad v2','hackpad v2',(#2088));
#2085=APPLICATION_PROTOCOL_DEFINITION('international standard',
'automotive_design',2009,#2086);
#2086=APPLICATION_CONTEXT(
'Core Data for Automotive Mechanical Design Process');
#2087=PRODUCT_CONTEXT('part definition',#2086,'mechanical');
#2088=PRODUCT('hackpad','hackpad v2',$,(#2087));
#2089=PRESENTATION_STYLE_ASSIGNMENT((#2090));
#2090=SURFACE_STYLE_USAGE(.BOTH.,#2091);
#2091=SURFACE_SIDE_STYLE('',(#2092));
#2092=SURFACE_STYLE_FILL_AREA(#2093);
#2093=FILL_AREA_STYLE('Steel - Satin',(#2094));
#2094=FILL_AREA_STYLE_COLOUR('Steel - Satin',#2095);
#2095=COLOUR_RGB('Steel - Satin',0.627450980392157,0.627450980392157,0.627450980392157);
ENDSEC;
END-ISO-10303-21;
